<?xml version="1.0" encoding="utf-8" standalone="no"?>
<!DOCTYPE svg PUBLIC "-//W3C//DTD SVG 1.1//EN"
  "http://www.w3.org/Graphics/SVG/1.1/DTD/svg11.dtd">
<svg xmlns:xlink="http://www.w3.org/1999/xlink" width="864pt" height="576pt" viewBox="0 0 864 576" xmlns="http://www.w3.org/2000/svg" version="1.1">
 <metadata>
  <rdf:RDF xmlns:dc="http://purl.org/dc/elements/1.1/" xmlns:cc="http://creativecommons.org/ns#" xmlns:rdf="http://www.w3.org/1999/02/22-rdf-syntax-ns#">
   <cc:Work>
    <dc:type rdf:resource="http://purl.org/dc/dcmitype/StillImage"/>
    <dc:date>2023-04-26T00:51:07.686345</dc:date>
    <dc:format>image/svg+xml</dc:format>
    <dc:creator>
     <cc:Agent>
      <dc:title>Matplotlib v3.6.1, https://matplotlib.org/</dc:title>
     </cc:Agent>
    </dc:creator>
   </cc:Work>
  </rdf:RDF>
 </metadata>
 <defs>
  <style type="text/css">*{stroke-linejoin: round; stroke-linecap: butt}</style>
 </defs>
 <g id="figure_1">
  <g id="patch_1">
   <path d="M 0 576 
L 864 576 
L 864 0 
L 0 0 
z
" style="fill: #f0f0f0"/>
  </g>
  <g id="axes_1">
   <g id="patch_2">
    <path d="M 69.12 535.68 
L 820.8 535.68 
L 820.8 57.6 
L 69.12 57.6 
z
" style="fill: #e5e5e5"/>
   </g>
   <g id="matplotlib.axis_1">
    <g id="xtick_1">
     <g id="line2d_1">
      <path d="M 132.29431 535.68 
L 132.29431 57.6 
" clip-path="url(#p903890745e)" style="fill: none; stroke: #ffffff; stroke-width: 0.8"/>
     </g>
     <g id="line2d_2"/>
     <g id="line2d_3"/>
     <g id="text_1">
      <!-- 2014 -->
      <g style="fill: #555555" transform="translate(122.11431 547.35875) scale(0.08 -0.08)">
       <defs>
        <path id="DejaVuSans-32" d="M 1228 531 
L 3431 531 
L 3431 0 
L 469 0 
L 469 531 
Q 828 903 1448 1529 
Q 2069 2156 2228 2338 
Q 2531 2678 2651 2914 
Q 2772 3150 2772 3378 
Q 2772 3750 2511 3984 
Q 2250 4219 1831 4219 
Q 1534 4219 1204 4116 
Q 875 4013 500 3803 
L 500 4441 
Q 881 4594 1212 4672 
Q 1544 4750 1819 4750 
Q 2544 4750 2975 4387 
Q 3406 4025 3406 3419 
Q 3406 3131 3298 2873 
Q 3191 2616 2906 2266 
Q 2828 2175 2409 1742 
Q 1991 1309 1228 531 
z
" transform="scale(0.015625)"/>
        <path id="DejaVuSans-30" d="M 2034 4250 
Q 1547 4250 1301 3770 
Q 1056 3291 1056 2328 
Q 1056 1369 1301 889 
Q 1547 409 2034 409 
Q 2525 409 2770 889 
Q 3016 1369 3016 2328 
Q 3016 3291 2770 3770 
Q 2525 4250 2034 4250 
z
M 2034 4750 
Q 2819 4750 3233 4129 
Q 3647 3509 3647 2328 
Q 3647 1150 3233 529 
Q 2819 -91 2034 -91 
Q 1250 -91 836 529 
Q 422 1150 422 2328 
Q 422 3509 836 4129 
Q 1250 4750 2034 4750 
z
" transform="scale(0.015625)"/>
        <path id="DejaVuSans-31" d="M 794 531 
L 1825 531 
L 1825 4091 
L 703 3866 
L 703 4441 
L 1819 4666 
L 2450 4666 
L 2450 531 
L 3481 531 
L 3481 0 
L 794 0 
L 794 531 
z
" transform="scale(0.015625)"/>
        <path id="DejaVuSans-34" d="M 2419 4116 
L 825 1625 
L 2419 1625 
L 2419 4116 
z
M 2253 4666 
L 3047 4666 
L 3047 1625 
L 3713 1625 
L 3713 1100 
L 3047 1100 
L 3047 0 
L 2419 0 
L 2419 1100 
L 313 1100 
L 313 1709 
L 2253 4666 
z
" transform="scale(0.015625)"/>
       </defs>
       <use xlink:href="#DejaVuSans-32"/>
       <use xlink:href="#DejaVuSans-30" x="63.623047"/>
       <use xlink:href="#DejaVuSans-31" x="127.246094"/>
       <use xlink:href="#DejaVuSans-34" x="190.869141"/>
      </g>
     </g>
    </g>
    <g id="xtick_2">
     <g id="line2d_4">
      <path d="M 201.126021 535.68 
L 201.126021 57.6 
" clip-path="url(#p903890745e)" style="fill: none; stroke: #ffffff; stroke-width: 0.8"/>
     </g>
     <g id="line2d_5"/>
     <g id="line2d_6"/>
     <g id="text_2">
      <!-- 2015 -->
      <g style="fill: #555555" transform="translate(190.946021 547.35875) scale(0.08 -0.08)">
       <defs>
        <path id="DejaVuSans-35" d="M 691 4666 
L 3169 4666 
L 3169 4134 
L 1269 4134 
L 1269 2991 
Q 1406 3038 1543 3061 
Q 1681 3084 1819 3084 
Q 2600 3084 3056 2656 
Q 3513 2228 3513 1497 
Q 3513 744 3044 326 
Q 2575 -91 1722 -91 
Q 1428 -91 1123 -41 
Q 819 9 494 109 
L 494 744 
Q 775 591 1075 516 
Q 1375 441 1709 441 
Q 2250 441 2565 725 
Q 2881 1009 2881 1497 
Q 2881 1984 2565 2268 
Q 2250 2553 1709 2553 
Q 1456 2553 1204 2497 
Q 953 2441 691 2322 
L 691 4666 
z
" transform="scale(0.015625)"/>
       </defs>
       <use xlink:href="#DejaVuSans-32"/>
       <use xlink:href="#DejaVuSans-30" x="63.623047"/>
       <use xlink:href="#DejaVuSans-31" x="127.246094"/>
       <use xlink:href="#DejaVuSans-35" x="190.869141"/>
      </g>
     </g>
    </g>
    <g id="xtick_3">
     <g id="line2d_7">
      <path d="M 269.957732 535.68 
L 269.957732 57.6 
" clip-path="url(#p903890745e)" style="fill: none; stroke: #ffffff; stroke-width: 0.8"/>
     </g>
     <g id="line2d_8"/>
     <g id="line2d_9"/>
     <g id="text_3">
      <!-- 2016 -->
      <g style="fill: #555555" transform="translate(259.777732 547.35875) scale(0.08 -0.08)">
       <defs>
        <path id="DejaVuSans-36" d="M 2113 2584 
Q 1688 2584 1439 2293 
Q 1191 2003 1191 1497 
Q 1191 994 1439 701 
Q 1688 409 2113 409 
Q 2538 409 2786 701 
Q 3034 994 3034 1497 
Q 3034 2003 2786 2293 
Q 2538 2584 2113 2584 
z
M 3366 4563 
L 3366 3988 
Q 3128 4100 2886 4159 
Q 2644 4219 2406 4219 
Q 1781 4219 1451 3797 
Q 1122 3375 1075 2522 
Q 1259 2794 1537 2939 
Q 1816 3084 2150 3084 
Q 2853 3084 3261 2657 
Q 3669 2231 3669 1497 
Q 3669 778 3244 343 
Q 2819 -91 2113 -91 
Q 1303 -91 875 529 
Q 447 1150 447 2328 
Q 447 3434 972 4092 
Q 1497 4750 2381 4750 
Q 2619 4750 2861 4703 
Q 3103 4656 3366 4563 
z
" transform="scale(0.015625)"/>
       </defs>
       <use xlink:href="#DejaVuSans-32"/>
       <use xlink:href="#DejaVuSans-30" x="63.623047"/>
       <use xlink:href="#DejaVuSans-31" x="127.246094"/>
       <use xlink:href="#DejaVuSans-36" x="190.869141"/>
      </g>
     </g>
    </g>
    <g id="xtick_4">
     <g id="line2d_10">
      <path d="M 338.978023 535.68 
L 338.978023 57.6 
" clip-path="url(#p903890745e)" style="fill: none; stroke: #ffffff; stroke-width: 0.8"/>
     </g>
     <g id="line2d_11"/>
     <g id="line2d_12"/>
     <g id="text_4">
      <!-- 2017 -->
      <g style="fill: #555555" transform="translate(328.798023 547.35875) scale(0.08 -0.08)">
       <defs>
        <path id="DejaVuSans-37" d="M 525 4666 
L 3525 4666 
L 3525 4397 
L 1831 0 
L 1172 0 
L 2766 4134 
L 525 4134 
L 525 4666 
z
" transform="scale(0.015625)"/>
       </defs>
       <use xlink:href="#DejaVuSans-32"/>
       <use xlink:href="#DejaVuSans-30" x="63.623047"/>
       <use xlink:href="#DejaVuSans-31" x="127.246094"/>
       <use xlink:href="#DejaVuSans-37" x="190.869141"/>
      </g>
     </g>
    </g>
    <g id="xtick_5">
     <g id="line2d_13">
      <path d="M 407.809734 535.68 
L 407.809734 57.6 
" clip-path="url(#p903890745e)" style="fill: none; stroke: #ffffff; stroke-width: 0.8"/>
     </g>
     <g id="line2d_14"/>
     <g id="line2d_15"/>
     <g id="text_5">
      <!-- 2018 -->
      <g style="fill: #555555" transform="translate(397.629734 547.35875) scale(0.08 -0.08)">
       <defs>
        <path id="DejaVuSans-38" d="M 2034 2216 
Q 1584 2216 1326 1975 
Q 1069 1734 1069 1313 
Q 1069 891 1326 650 
Q 1584 409 2034 409 
Q 2484 409 2743 651 
Q 3003 894 3003 1313 
Q 3003 1734 2745 1975 
Q 2488 2216 2034 2216 
z
M 1403 2484 
Q 997 2584 770 2862 
Q 544 3141 544 3541 
Q 544 4100 942 4425 
Q 1341 4750 2034 4750 
Q 2731 4750 3128 4425 
Q 3525 4100 3525 3541 
Q 3525 3141 3298 2862 
Q 3072 2584 2669 2484 
Q 3125 2378 3379 2068 
Q 3634 1759 3634 1313 
Q 3634 634 3220 271 
Q 2806 -91 2034 -91 
Q 1263 -91 848 271 
Q 434 634 434 1313 
Q 434 1759 690 2068 
Q 947 2378 1403 2484 
z
M 1172 3481 
Q 1172 3119 1398 2916 
Q 1625 2713 2034 2713 
Q 2441 2713 2670 2916 
Q 2900 3119 2900 3481 
Q 2900 3844 2670 4047 
Q 2441 4250 2034 4250 
Q 1625 4250 1398 4047 
Q 1172 3844 1172 3481 
z
" transform="scale(0.015625)"/>
       </defs>
       <use xlink:href="#DejaVuSans-32"/>
       <use xlink:href="#DejaVuSans-30" x="63.623047"/>
       <use xlink:href="#DejaVuSans-31" x="127.246094"/>
       <use xlink:href="#DejaVuSans-38" x="190.869141"/>
      </g>
     </g>
    </g>
    <g id="xtick_6">
     <g id="line2d_16">
      <path d="M 476.641445 535.68 
L 476.641445 57.6 
" clip-path="url(#p903890745e)" style="fill: none; stroke: #ffffff; stroke-width: 0.8"/>
     </g>
     <g id="line2d_17"/>
     <g id="line2d_18"/>
     <g id="text_6">
      <!-- 2019 -->
      <g style="fill: #555555" transform="translate(466.461445 547.35875) scale(0.08 -0.08)">
       <defs>
        <path id="DejaVuSans-39" d="M 703 97 
L 703 672 
Q 941 559 1184 500 
Q 1428 441 1663 441 
Q 2288 441 2617 861 
Q 2947 1281 2994 2138 
Q 2813 1869 2534 1725 
Q 2256 1581 1919 1581 
Q 1219 1581 811 2004 
Q 403 2428 403 3163 
Q 403 3881 828 4315 
Q 1253 4750 1959 4750 
Q 2769 4750 3195 4129 
Q 3622 3509 3622 2328 
Q 3622 1225 3098 567 
Q 2575 -91 1691 -91 
Q 1453 -91 1209 -44 
Q 966 3 703 97 
z
M 1959 2075 
Q 2384 2075 2632 2365 
Q 2881 2656 2881 3163 
Q 2881 3666 2632 3958 
Q 2384 4250 1959 4250 
Q 1534 4250 1286 3958 
Q 1038 3666 1038 3163 
Q 1038 2656 1286 2365 
Q 1534 2075 1959 2075 
z
" transform="scale(0.015625)"/>
       </defs>
       <use xlink:href="#DejaVuSans-32"/>
       <use xlink:href="#DejaVuSans-30" x="63.623047"/>
       <use xlink:href="#DejaVuSans-31" x="127.246094"/>
       <use xlink:href="#DejaVuSans-39" x="190.869141"/>
      </g>
     </g>
    </g>
    <g id="xtick_7">
     <g id="line2d_19">
      <path d="M 545.473156 535.68 
L 545.473156 57.6 
" clip-path="url(#p903890745e)" style="fill: none; stroke: #ffffff; stroke-width: 0.8"/>
     </g>
     <g id="line2d_20"/>
     <g id="line2d_21"/>
     <g id="text_7">
      <!-- 2020 -->
      <g style="fill: #555555" transform="translate(535.293156 547.35875) scale(0.08 -0.08)">
       <use xlink:href="#DejaVuSans-32"/>
       <use xlink:href="#DejaVuSans-30" x="63.623047"/>
       <use xlink:href="#DejaVuSans-32" x="127.246094"/>
       <use xlink:href="#DejaVuSans-30" x="190.869141"/>
      </g>
     </g>
    </g>
    <g id="xtick_8">
     <g id="line2d_22">
      <path d="M 614.493447 535.68 
L 614.493447 57.6 
" clip-path="url(#p903890745e)" style="fill: none; stroke: #ffffff; stroke-width: 0.8"/>
     </g>
     <g id="line2d_23"/>
     <g id="line2d_24"/>
     <g id="text_8">
      <!-- 2021 -->
      <g style="fill: #555555" transform="translate(604.313447 547.35875) scale(0.08 -0.08)">
       <use xlink:href="#DejaVuSans-32"/>
       <use xlink:href="#DejaVuSans-30" x="63.623047"/>
       <use xlink:href="#DejaVuSans-32" x="127.246094"/>
       <use xlink:href="#DejaVuSans-31" x="190.869141"/>
      </g>
     </g>
    </g>
    <g id="xtick_9">
     <g id="line2d_25">
      <path d="M 683.325158 535.68 
L 683.325158 57.6 
" clip-path="url(#p903890745e)" style="fill: none; stroke: #ffffff; stroke-width: 0.8"/>
     </g>
     <g id="line2d_26"/>
     <g id="line2d_27"/>
     <g id="text_9">
      <!-- 2022 -->
      <g style="fill: #555555" transform="translate(673.145158 547.35875) scale(0.08 -0.08)">
       <use xlink:href="#DejaVuSans-32"/>
       <use xlink:href="#DejaVuSans-30" x="63.623047"/>
       <use xlink:href="#DejaVuSans-32" x="127.246094"/>
       <use xlink:href="#DejaVuSans-32" x="190.869141"/>
      </g>
     </g>
    </g>
    <g id="xtick_10">
     <g id="line2d_28">
      <path d="M 752.156869 535.68 
L 752.156869 57.6 
" clip-path="url(#p903890745e)" style="fill: none; stroke: #ffffff; stroke-width: 0.8"/>
     </g>
     <g id="line2d_29"/>
     <g id="line2d_30"/>
     <g id="text_10">
      <!-- 2023 -->
      <g style="fill: #555555" transform="translate(741.976869 547.35875) scale(0.08 -0.08)">
       <defs>
        <path id="DejaVuSans-33" d="M 2597 2516 
Q 3050 2419 3304 2112 
Q 3559 1806 3559 1356 
Q 3559 666 3084 287 
Q 2609 -91 1734 -91 
Q 1441 -91 1130 -33 
Q 819 25 488 141 
L 488 750 
Q 750 597 1062 519 
Q 1375 441 1716 441 
Q 2309 441 2620 675 
Q 2931 909 2931 1356 
Q 2931 1769 2642 2001 
Q 2353 2234 1838 2234 
L 1294 2234 
L 1294 2753 
L 1863 2753 
Q 2328 2753 2575 2939 
Q 2822 3125 2822 3475 
Q 2822 3834 2567 4026 
Q 2313 4219 1838 4219 
Q 1578 4219 1281 4162 
Q 984 4106 628 3988 
L 628 4550 
Q 988 4650 1302 4700 
Q 1616 4750 1894 4750 
Q 2613 4750 3031 4423 
Q 3450 4097 3450 3541 
Q 3450 3153 3228 2886 
Q 3006 2619 2597 2516 
z
" transform="scale(0.015625)"/>
       </defs>
       <use xlink:href="#DejaVuSans-32"/>
       <use xlink:href="#DejaVuSans-30" x="63.623047"/>
       <use xlink:href="#DejaVuSans-32" x="127.246094"/>
       <use xlink:href="#DejaVuSans-33" x="190.869141"/>
      </g>
     </g>
    </g>
   </g>
   <g id="matplotlib.axis_2">
    <g id="ytick_1">
     <g id="line2d_31">
      <path d="M 69.12 535.68 
L 820.8 535.68 
" clip-path="url(#p903890745e)" style="fill: none; stroke: #ffffff; stroke-width: 0.8"/>
     </g>
     <g id="line2d_32"/>
     <g id="line2d_33"/>
     <g id="text_11">
      <!-- 0 -->
      <g style="fill: #555555" transform="translate(58.43 537.8875) scale(0.08 -0.08)">
       <use xlink:href="#DejaVuSans-30"/>
      </g>
     </g>
    </g>
    <g id="ytick_2">
     <g id="line2d_34">
      <path d="M 69.12 440.064 
L 820.8 440.064 
" clip-path="url(#p903890745e)" style="fill: none; stroke: #ffffff; stroke-width: 0.8"/>
     </g>
     <g id="line2d_35"/>
     <g id="line2d_36"/>
     <g id="text_12">
      <!-- 20 -->
      <g style="fill: #555555" transform="translate(53.34 442.2715) scale(0.08 -0.08)">
       <use xlink:href="#DejaVuSans-32"/>
       <use xlink:href="#DejaVuSans-30" x="63.623047"/>
      </g>
     </g>
    </g>
    <g id="ytick_3">
     <g id="line2d_37">
      <path d="M 69.12 344.448 
L 820.8 344.448 
" clip-path="url(#p903890745e)" style="fill: none; stroke: #ffffff; stroke-width: 0.8"/>
     </g>
     <g id="line2d_38"/>
     <g id="line2d_39"/>
     <g id="text_13">
      <!-- 40 -->
      <g style="fill: #555555" transform="translate(53.34 346.6555) scale(0.08 -0.08)">
       <use xlink:href="#DejaVuSans-34"/>
       <use xlink:href="#DejaVuSans-30" x="63.623047"/>
      </g>
     </g>
    </g>
    <g id="ytick_4">
     <g id="line2d_40">
      <path d="M 69.12 248.832 
L 820.8 248.832 
" clip-path="url(#p903890745e)" style="fill: none; stroke: #ffffff; stroke-width: 0.8"/>
     </g>
     <g id="line2d_41"/>
     <g id="line2d_42"/>
     <g id="text_14">
      <!-- 60 -->
      <g style="fill: #555555" transform="translate(53.34 251.0395) scale(0.08 -0.08)">
       <use xlink:href="#DejaVuSans-36"/>
       <use xlink:href="#DejaVuSans-30" x="63.623047"/>
      </g>
     </g>
    </g>
    <g id="ytick_5">
     <g id="line2d_43">
      <path d="M 69.12 153.216 
L 820.8 153.216 
" clip-path="url(#p903890745e)" style="fill: none; stroke: #ffffff; stroke-width: 0.8"/>
     </g>
     <g id="line2d_44"/>
     <g id="line2d_45"/>
     <g id="text_15">
      <!-- 80 -->
      <g style="fill: #555555" transform="translate(53.34 155.4235) scale(0.08 -0.08)">
       <use xlink:href="#DejaVuSans-38"/>
       <use xlink:href="#DejaVuSans-30" x="63.623047"/>
      </g>
     </g>
    </g>
    <g id="ytick_6">
     <g id="line2d_46">
      <path d="M 69.12 57.6 
L 820.8 57.6 
" clip-path="url(#p903890745e)" style="fill: none; stroke: #ffffff; stroke-width: 0.8"/>
     </g>
     <g id="line2d_47"/>
     <g id="line2d_48"/>
     <g id="text_16">
      <!-- 100 -->
      <g style="fill: #555555" transform="translate(48.25 59.8075) scale(0.08 -0.08)">
       <use xlink:href="#DejaVuSans-31"/>
       <use xlink:href="#DejaVuSans-30" x="63.623047"/>
       <use xlink:href="#DejaVuSans-30" x="127.246094"/>
      </g>
     </g>
    </g>
    <g id="text_17">
     <!-- Cotação do Crédito (em EUR) -->
     <g style="fill: #555555" transform="translate(40.754375 384.700313) rotate(-90) scale(0.12 -0.12)">
      <defs>
       <path id="DejaVuSans-43" d="M 4122 4306 
L 4122 3641 
Q 3803 3938 3442 4084 
Q 3081 4231 2675 4231 
Q 1875 4231 1450 3742 
Q 1025 3253 1025 2328 
Q 1025 1406 1450 917 
Q 1875 428 2675 428 
Q 3081 428 3442 575 
Q 3803 722 4122 1019 
L 4122 359 
Q 3791 134 3420 21 
Q 3050 -91 2638 -91 
Q 1578 -91 968 557 
Q 359 1206 359 2328 
Q 359 3453 968 4101 
Q 1578 4750 2638 4750 
Q 3056 4750 3426 4639 
Q 3797 4528 4122 4306 
z
" transform="scale(0.015625)"/>
       <path id="DejaVuSans-6f" d="M 1959 3097 
Q 1497 3097 1228 2736 
Q 959 2375 959 1747 
Q 959 1119 1226 758 
Q 1494 397 1959 397 
Q 2419 397 2687 759 
Q 2956 1122 2956 1747 
Q 2956 2369 2687 2733 
Q 2419 3097 1959 3097 
z
M 1959 3584 
Q 2709 3584 3137 3096 
Q 3566 2609 3566 1747 
Q 3566 888 3137 398 
Q 2709 -91 1959 -91 
Q 1206 -91 779 398 
Q 353 888 353 1747 
Q 353 2609 779 3096 
Q 1206 3584 1959 3584 
z
" transform="scale(0.015625)"/>
       <path id="DejaVuSans-74" d="M 1172 4494 
L 1172 3500 
L 2356 3500 
L 2356 3053 
L 1172 3053 
L 1172 1153 
Q 1172 725 1289 603 
Q 1406 481 1766 481 
L 2356 481 
L 2356 0 
L 1766 0 
Q 1100 0 847 248 
Q 594 497 594 1153 
L 594 3053 
L 172 3053 
L 172 3500 
L 594 3500 
L 594 4494 
L 1172 4494 
z
" transform="scale(0.015625)"/>
       <path id="DejaVuSans-61" d="M 2194 1759 
Q 1497 1759 1228 1600 
Q 959 1441 959 1056 
Q 959 750 1161 570 
Q 1363 391 1709 391 
Q 2188 391 2477 730 
Q 2766 1069 2766 1631 
L 2766 1759 
L 2194 1759 
z
M 3341 1997 
L 3341 0 
L 2766 0 
L 2766 531 
Q 2569 213 2275 61 
Q 1981 -91 1556 -91 
Q 1019 -91 701 211 
Q 384 513 384 1019 
Q 384 1609 779 1909 
Q 1175 2209 1959 2209 
L 2766 2209 
L 2766 2266 
Q 2766 2663 2505 2880 
Q 2244 3097 1772 3097 
Q 1472 3097 1187 3025 
Q 903 2953 641 2809 
L 641 3341 
Q 956 3463 1253 3523 
Q 1550 3584 1831 3584 
Q 2591 3584 2966 3190 
Q 3341 2797 3341 1997 
z
" transform="scale(0.015625)"/>
       <path id="DejaVuSans-e7" d="M 3122 3366 
L 3122 2828 
Q 2878 2963 2633 3030 
Q 2388 3097 2138 3097 
Q 1578 3097 1268 2742 
Q 959 2388 959 1747 
Q 959 1106 1268 751 
Q 1578 397 2138 397 
Q 2388 397 2633 464 
Q 2878 531 3122 666 
L 3122 134 
Q 2881 22 2623 -34 
Q 2366 -91 2075 -91 
Q 1284 -91 818 406 
Q 353 903 353 1747 
Q 353 2603 823 3093 
Q 1294 3584 2113 3584 
Q 2378 3584 2631 3529 
Q 2884 3475 3122 3366 
z
M 2311 0 
Q 2482 -194 2566 -358 
Q 2651 -522 2651 -672 
Q 2651 -950 2463 -1092 
Q 2276 -1234 1907 -1234 
Q 1764 -1234 1628 -1215 
Q 1492 -1197 1357 -1159 
L 1357 -750 
Q 1464 -803 1579 -826 
Q 1695 -850 1842 -850 
Q 2026 -850 2120 -775 
Q 2214 -700 2214 -556 
Q 2214 -463 2146 -327 
Q 2079 -191 1939 0 
L 2311 0 
z
" transform="scale(0.015625)"/>
       <path id="DejaVuSans-e3" d="M 2194 1759 
Q 1497 1759 1228 1600 
Q 959 1441 959 1056 
Q 959 750 1161 570 
Q 1363 391 1709 391 
Q 2188 391 2477 730 
Q 2766 1069 2766 1631 
L 2766 1759 
L 2194 1759 
z
M 3341 1997 
L 3341 0 
L 2766 0 
L 2766 531 
Q 2569 213 2275 61 
Q 1981 -91 1556 -91 
Q 1019 -91 701 211 
Q 384 513 384 1019 
Q 384 1609 779 1909 
Q 1175 2209 1959 2209 
L 2766 2209 
L 2766 2266 
Q 2766 2663 2505 2880 
Q 2244 3097 1772 3097 
Q 1472 3097 1187 3025 
Q 903 2953 641 2809 
L 641 3341 
Q 956 3463 1253 3523 
Q 1550 3584 1831 3584 
Q 2591 3584 2966 3190 
Q 3341 2797 3341 1997 
z
M 1844 4281 
L 1665 4453 
Q 1597 4516 1545 4545 
Q 1494 4575 1453 4575 
Q 1334 4575 1278 4461 
Q 1222 4347 1215 4091 
L 825 4091 
Q 831 4513 990 4742 
Q 1150 4972 1434 4972 
Q 1553 4972 1653 4928 
Q 1753 4884 1869 4781 
L 2047 4609 
Q 2115 4547 2167 4517 
Q 2219 4488 2259 4488 
Q 2378 4488 2434 4602 
Q 2490 4716 2497 4972 
L 2887 4972 
Q 2881 4550 2721 4320 
Q 2562 4091 2278 4091 
Q 2159 4091 2059 4134 
Q 1959 4178 1844 4281 
z
" transform="scale(0.015625)"/>
       <path id="DejaVuSans-20" transform="scale(0.015625)"/>
       <path id="DejaVuSans-64" d="M 2906 2969 
L 2906 4863 
L 3481 4863 
L 3481 0 
L 2906 0 
L 2906 525 
Q 2725 213 2448 61 
Q 2172 -91 1784 -91 
Q 1150 -91 751 415 
Q 353 922 353 1747 
Q 353 2572 751 3078 
Q 1150 3584 1784 3584 
Q 2172 3584 2448 3432 
Q 2725 3281 2906 2969 
z
M 947 1747 
Q 947 1113 1208 752 
Q 1469 391 1925 391 
Q 2381 391 2643 752 
Q 2906 1113 2906 1747 
Q 2906 2381 2643 2742 
Q 2381 3103 1925 3103 
Q 1469 3103 1208 2742 
Q 947 2381 947 1747 
z
" transform="scale(0.015625)"/>
       <path id="DejaVuSans-72" d="M 2631 2963 
Q 2534 3019 2420 3045 
Q 2306 3072 2169 3072 
Q 1681 3072 1420 2755 
Q 1159 2438 1159 1844 
L 1159 0 
L 581 0 
L 581 3500 
L 1159 3500 
L 1159 2956 
Q 1341 3275 1631 3429 
Q 1922 3584 2338 3584 
Q 2397 3584 2469 3576 
Q 2541 3569 2628 3553 
L 2631 2963 
z
" transform="scale(0.015625)"/>
       <path id="DejaVuSans-e9" d="M 3597 1894 
L 3597 1613 
L 953 1613 
Q 991 1019 1311 708 
Q 1631 397 2203 397 
Q 2534 397 2845 478 
Q 3156 559 3463 722 
L 3463 178 
Q 3153 47 2828 -22 
Q 2503 -91 2169 -91 
Q 1331 -91 842 396 
Q 353 884 353 1716 
Q 353 2575 817 3079 
Q 1281 3584 2069 3584 
Q 2775 3584 3186 3129 
Q 3597 2675 3597 1894 
z
M 3022 2063 
Q 3016 2534 2758 2815 
Q 2500 3097 2075 3097 
Q 1594 3097 1305 2825 
Q 1016 2553 972 2059 
L 3022 2063 
z
M 2466 5119 
L 3088 5119 
L 2070 3944 
L 1591 3944 
L 2466 5119 
z
" transform="scale(0.015625)"/>
       <path id="DejaVuSans-69" d="M 603 3500 
L 1178 3500 
L 1178 0 
L 603 0 
L 603 3500 
z
M 603 4863 
L 1178 4863 
L 1178 4134 
L 603 4134 
L 603 4863 
z
" transform="scale(0.015625)"/>
       <path id="DejaVuSans-28" d="M 1984 4856 
Q 1566 4138 1362 3434 
Q 1159 2731 1159 2009 
Q 1159 1288 1364 580 
Q 1569 -128 1984 -844 
L 1484 -844 
Q 1016 -109 783 600 
Q 550 1309 550 2009 
Q 550 2706 781 3412 
Q 1013 4119 1484 4856 
L 1984 4856 
z
" transform="scale(0.015625)"/>
       <path id="DejaVuSans-65" d="M 3597 1894 
L 3597 1613 
L 953 1613 
Q 991 1019 1311 708 
Q 1631 397 2203 397 
Q 2534 397 2845 478 
Q 3156 559 3463 722 
L 3463 178 
Q 3153 47 2828 -22 
Q 2503 -91 2169 -91 
Q 1331 -91 842 396 
Q 353 884 353 1716 
Q 353 2575 817 3079 
Q 1281 3584 2069 3584 
Q 2775 3584 3186 3129 
Q 3597 2675 3597 1894 
z
M 3022 2063 
Q 3016 2534 2758 2815 
Q 2500 3097 2075 3097 
Q 1594 3097 1305 2825 
Q 1016 2553 972 2059 
L 3022 2063 
z
" transform="scale(0.015625)"/>
       <path id="DejaVuSans-6d" d="M 3328 2828 
Q 3544 3216 3844 3400 
Q 4144 3584 4550 3584 
Q 5097 3584 5394 3201 
Q 5691 2819 5691 2113 
L 5691 0 
L 5113 0 
L 5113 2094 
Q 5113 2597 4934 2840 
Q 4756 3084 4391 3084 
Q 3944 3084 3684 2787 
Q 3425 2491 3425 1978 
L 3425 0 
L 2847 0 
L 2847 2094 
Q 2847 2600 2669 2842 
Q 2491 3084 2119 3084 
Q 1678 3084 1418 2786 
Q 1159 2488 1159 1978 
L 1159 0 
L 581 0 
L 581 3500 
L 1159 3500 
L 1159 2956 
Q 1356 3278 1631 3431 
Q 1906 3584 2284 3584 
Q 2666 3584 2933 3390 
Q 3200 3197 3328 2828 
z
" transform="scale(0.015625)"/>
       <path id="DejaVuSans-45" d="M 628 4666 
L 3578 4666 
L 3578 4134 
L 1259 4134 
L 1259 2753 
L 3481 2753 
L 3481 2222 
L 1259 2222 
L 1259 531 
L 3634 531 
L 3634 0 
L 628 0 
L 628 4666 
z
" transform="scale(0.015625)"/>
       <path id="DejaVuSans-55" d="M 556 4666 
L 1191 4666 
L 1191 1831 
Q 1191 1081 1462 751 
Q 1734 422 2344 422 
Q 2950 422 3222 751 
Q 3494 1081 3494 1831 
L 3494 4666 
L 4128 4666 
L 4128 1753 
Q 4128 841 3676 375 
Q 3225 -91 2344 -91 
Q 1459 -91 1007 375 
Q 556 841 556 1753 
L 556 4666 
z
" transform="scale(0.015625)"/>
       <path id="DejaVuSans-52" d="M 2841 2188 
Q 3044 2119 3236 1894 
Q 3428 1669 3622 1275 
L 4263 0 
L 3584 0 
L 2988 1197 
Q 2756 1666 2539 1819 
Q 2322 1972 1947 1972 
L 1259 1972 
L 1259 0 
L 628 0 
L 628 4666 
L 2053 4666 
Q 2853 4666 3247 4331 
Q 3641 3997 3641 3322 
Q 3641 2881 3436 2590 
Q 3231 2300 2841 2188 
z
M 1259 4147 
L 1259 2491 
L 2053 2491 
Q 2509 2491 2742 2702 
Q 2975 2913 2975 3322 
Q 2975 3731 2742 3939 
Q 2509 4147 2053 4147 
L 1259 4147 
z
" transform="scale(0.015625)"/>
       <path id="DejaVuSans-29" d="M 513 4856 
L 1013 4856 
Q 1481 4119 1714 3412 
Q 1947 2706 1947 2009 
Q 1947 1309 1714 600 
Q 1481 -109 1013 -844 
L 513 -844 
Q 928 -128 1133 580 
Q 1338 1288 1338 2009 
Q 1338 2731 1133 3434 
Q 928 4138 513 4856 
z
" transform="scale(0.015625)"/>
      </defs>
      <use xlink:href="#DejaVuSans-43"/>
      <use xlink:href="#DejaVuSans-6f" x="69.824219"/>
      <use xlink:href="#DejaVuSans-74" x="131.005859"/>
      <use xlink:href="#DejaVuSans-61" x="170.214844"/>
      <use xlink:href="#DejaVuSans-e7" x="231.494141"/>
      <use xlink:href="#DejaVuSans-e3" x="286.474609"/>
      <use xlink:href="#DejaVuSans-6f" x="347.753906"/>
      <use xlink:href="#DejaVuSans-20" x="408.935547"/>
      <use xlink:href="#DejaVuSans-64" x="440.722656"/>
      <use xlink:href="#DejaVuSans-6f" x="504.199219"/>
      <use xlink:href="#DejaVuSans-20" x="565.380859"/>
      <use xlink:href="#DejaVuSans-43" x="597.167969"/>
      <use xlink:href="#DejaVuSans-72" x="666.992188"/>
      <use xlink:href="#DejaVuSans-e9" x="708.074219"/>
      <use xlink:href="#DejaVuSans-64" x="769.597656"/>
      <use xlink:href="#DejaVuSans-69" x="833.074219"/>
      <use xlink:href="#DejaVuSans-74" x="860.857422"/>
      <use xlink:href="#DejaVuSans-6f" x="900.066406"/>
      <use xlink:href="#DejaVuSans-20" x="961.248047"/>
      <use xlink:href="#DejaVuSans-28" x="993.035156"/>
      <use xlink:href="#DejaVuSans-65" x="1032.048828"/>
      <use xlink:href="#DejaVuSans-6d" x="1093.572266"/>
      <use xlink:href="#DejaVuSans-20" x="1190.984375"/>
      <use xlink:href="#DejaVuSans-45" x="1222.771484"/>
      <use xlink:href="#DejaVuSans-55" x="1285.955078"/>
      <use xlink:href="#DejaVuSans-52" x="1359.148438"/>
      <use xlink:href="#DejaVuSans-29" x="1428.630859"/>
     </g>
    </g>
   </g>
   <g id="line2d_49">
    <path d="M 69.12 513.888244 
L 74.400241 512.985542 
L 85.903623 517.289132 
L 91.749604 517.0548 
L 97.407005 514.601453 
L 109.098966 514.191343 
L 114.756367 511.113859 
L 126.259749 514.130544 
L 132.10573 513.141943 
L 137.951711 509.896938 
L 143.231952 505.67809 
L 149.077933 507.93144 
L 160.581315 509.626813 
L 172.084696 507.08484 
L 177.930677 506.630949 
L 183.588078 508.137811 
L 212.063663 499.703342 
L 217.909644 501.422153 
L 246.762388 497.551982 
L 252.419789 498.169427 
L 258.26577 496.610471 
L 263.923171 496.29816 
L 269.769152 497.681746 
L 275.615133 507.675377 
L 281.083954 511.27779 
L 286.929935 511.116753 
L 292.587336 507.875302 
L 304.090718 509.794141 
L 309.936698 511.967232 
L 315.782679 511.95476 
L 321.44008 513.175471 
L 327.286061 508.54657 
L 332.943462 510.128797 
L 349.915665 508.235818 
L 361.419047 509.26608 
L 372.922428 508.206336 
L 378.768409 507.162528 
L 396.117772 501.803686 
L 401.775173 500.486793 
L 407.621154 500.722287 
L 413.467135 479.660976 
L 418.747376 476.57497 
L 424.593357 465.358985 
L 436.096739 455.958168 
L 441.754139 456.040564 
L 453.446101 441.435882 
L 459.103502 438.194935 
L 464.949483 438.905225 
L 470.606884 437.069481 
L 476.452865 429.357285 
L 482.298846 413.178519 
L 487.579087 423.053914 
L 493.425068 421.138862 
L 499.082469 407.334643 
L 504.92845 409.544568 
L 510.58585 408.9888 
L 516.431831 399.50005 
L 522.277812 407.752028 
L 533.781194 409.512515 
L 539.438595 414.02319 
L 545.284576 409.799259 
L 551.130557 416.579407 
L 556.599378 414.903333 
L 562.445359 434.042271 
L 568.10276 426.616293 
L 573.948741 427.57655 
L 579.606141 415.340434 
L 585.452122 406.0008 
L 591.298103 406.229595 
L 596.955504 404.242769 
L 602.801485 413.081581 
L 608.458886 407.069309 
L 614.304867 395.217706 
L 620.150848 336.58793 
L 625.431089 316.097856 
L 636.934471 309.717661 
L 642.780452 287.945463 
L 648.437852 274.850935 
L 654.283833 278.010092 
L 660.129814 269.509999 
L 665.787215 254.242618 
L 671.633196 257.264421 
L 677.290597 235.436198 
L 683.136578 208.8924 
L 688.982559 136.291968 
L 694.2628 123.733561 
L 700.108781 155.412995 
L 705.766182 143.544442 
L 711.612163 137.969801 
L 717.269563 137.145993 
L 723.115544 154.691812 
L 728.961525 123.944465 
L 734.618926 184.497644 
L 740.464907 175.105234 
L 746.122308 160.05689 
L 751.968289 135.67957 
L 757.81427 135.176448 
L 763.094511 92.834496 
L 768.940492 112.536424 
L 774.597893 101.800669 
L 780.443874 121.5432 
L 786.101274 117.097056 
L 791.947255 103.567392 
L 797.793236 99.79056 
L 803.450637 116.579136 
L 809.296618 112.34016 
L 814.954019 119.487456 
L 820.8 119.678688 
L 820.8 119.678688 
" clip-path="url(#p903890745e)" style="fill: none; stroke: #e24a33; stroke-width: 1.4"/>
   </g>
   <g id="line2d_50">
    <path d="M 69.12 515.2671 
L 85.903623 515.60496 
L 97.407005 513.540582 
L 109.098966 513.097174 
L 143.231952 507.968892 
L 160.581315 507.92369 
L 183.588078 504.603857 
L 195.09146 501.909826 
L 212.063663 500.401959 
L 229.413026 498.870651 
L 246.762388 497.262357 
L 258.26577 501.908709 
L 269.769152 507.125394 
L 275.615133 509.263198 
L 309.936698 511.154566 
L 344.635424 508.958094 
L 361.419047 507.759859 
L 384.61439 502.156445 
L 396.117772 491.849742 
L 407.621154 476.55331 
L 413.467135 467.600486 
L 436.096739 448.00516 
L 453.446101 436.992561 
L 459.103502 431.341089 
L 470.606884 424.759612 
L 476.452865 418.812644 
L 482.298846 414.850101 
L 487.579087 414.012157 
L 493.425068 409.301385 
L 499.082469 406.624018 
L 516.431831 407.800419 
L 533.781194 412.963541 
L 539.438595 417.869492 
L 551.130557 423.943571 
L 556.599378 423.695776 
L 562.445359 421.91527 
L 573.948741 411.87803 
L 579.606141 408.979036 
L 591.298103 405.168192 
L 596.955504 391.239859 
L 608.458886 353.447837 
L 625.431089 300.17566 
L 636.934471 284.00683 
L 642.780452 272.911822 
L 648.437852 266.775613 
L 654.283833 258.892666 
L 660.129814 245.069127 
L 671.633196 192.32371 
L 683.136578 153.575073 
L 688.982559 139.390553 
L 694.2628 139.561358 
L 700.108781 145.753009 
L 705.766182 139.459303 
L 717.269563 155.07703 
L 723.115544 159.659209 
L 728.961525 155.856761 
L 734.618926 158.103157 
L 740.464907 139.770528 
L 751.968289 115.605522 
L 763.094511 109.162369 
L 768.940492 111.308948 
L 774.597893 108.759775 
L 780.443874 111.715469 
L 786.101274 109.874861 
L 791.947255 110.352941 
L 797.793236 113.5752 
L 797.793236 113.5752 
" clip-path="url(#p903890745e)" style="fill: none; stroke-dasharray: 6,6; stroke-dashoffset: 0; stroke: #348abd; stroke-width: 1.4"/>
   </g>
   <g id="patch_3">
    <path d="M 69.12 535.68 
L 69.12 57.6 
" style="fill: none; stroke: #ffffff; stroke-linejoin: miter; stroke-linecap: square"/>
   </g>
   <g id="patch_4">
    <path d="M 820.8 535.68 
L 820.8 57.6 
" style="fill: none; stroke: #ffffff; stroke-linejoin: miter; stroke-linecap: square"/>
   </g>
   <g id="patch_5">
    <path d="M 69.12 535.68 
L 820.8 535.68 
" style="fill: none; stroke: #ffffff; stroke-linejoin: miter; stroke-linecap: square"/>
   </g>
   <g id="patch_6">
    <path d="M 69.12 57.6 
L 820.8 57.6 
" style="fill: none; stroke: #ffffff; stroke-linejoin: miter; stroke-linecap: square"/>
   </g>
   <g id="text_18">
    <!-- Serie temporal da média mensal da cotação do Crédito de Carbono -->
    <g transform="translate(208.355625 52.6) scale(0.14 -0.14)">
     <defs>
      <path id="DejaVuSans-53" d="M 3425 4513 
L 3425 3897 
Q 3066 4069 2747 4153 
Q 2428 4238 2131 4238 
Q 1616 4238 1336 4038 
Q 1056 3838 1056 3469 
Q 1056 3159 1242 3001 
Q 1428 2844 1947 2747 
L 2328 2669 
Q 3034 2534 3370 2195 
Q 3706 1856 3706 1288 
Q 3706 609 3251 259 
Q 2797 -91 1919 -91 
Q 1588 -91 1214 -16 
Q 841 59 441 206 
L 441 856 
Q 825 641 1194 531 
Q 1563 422 1919 422 
Q 2459 422 2753 634 
Q 3047 847 3047 1241 
Q 3047 1584 2836 1778 
Q 2625 1972 2144 2069 
L 1759 2144 
Q 1053 2284 737 2584 
Q 422 2884 422 3419 
Q 422 4038 858 4394 
Q 1294 4750 2059 4750 
Q 2388 4750 2728 4690 
Q 3069 4631 3425 4513 
z
" transform="scale(0.015625)"/>
      <path id="DejaVuSans-70" d="M 1159 525 
L 1159 -1331 
L 581 -1331 
L 581 3500 
L 1159 3500 
L 1159 2969 
Q 1341 3281 1617 3432 
Q 1894 3584 2278 3584 
Q 2916 3584 3314 3078 
Q 3713 2572 3713 1747 
Q 3713 922 3314 415 
Q 2916 -91 2278 -91 
Q 1894 -91 1617 61 
Q 1341 213 1159 525 
z
M 3116 1747 
Q 3116 2381 2855 2742 
Q 2594 3103 2138 3103 
Q 1681 3103 1420 2742 
Q 1159 2381 1159 1747 
Q 1159 1113 1420 752 
Q 1681 391 2138 391 
Q 2594 391 2855 752 
Q 3116 1113 3116 1747 
z
" transform="scale(0.015625)"/>
      <path id="DejaVuSans-6c" d="M 603 4863 
L 1178 4863 
L 1178 0 
L 603 0 
L 603 4863 
z
" transform="scale(0.015625)"/>
      <path id="DejaVuSans-6e" d="M 3513 2113 
L 3513 0 
L 2938 0 
L 2938 2094 
Q 2938 2591 2744 2837 
Q 2550 3084 2163 3084 
Q 1697 3084 1428 2787 
Q 1159 2491 1159 1978 
L 1159 0 
L 581 0 
L 581 3500 
L 1159 3500 
L 1159 2956 
Q 1366 3272 1645 3428 
Q 1925 3584 2291 3584 
Q 2894 3584 3203 3211 
Q 3513 2838 3513 2113 
z
" transform="scale(0.015625)"/>
      <path id="DejaVuSans-73" d="M 2834 3397 
L 2834 2853 
Q 2591 2978 2328 3040 
Q 2066 3103 1784 3103 
Q 1356 3103 1142 2972 
Q 928 2841 928 2578 
Q 928 2378 1081 2264 
Q 1234 2150 1697 2047 
L 1894 2003 
Q 2506 1872 2764 1633 
Q 3022 1394 3022 966 
Q 3022 478 2636 193 
Q 2250 -91 1575 -91 
Q 1294 -91 989 -36 
Q 684 19 347 128 
L 347 722 
Q 666 556 975 473 
Q 1284 391 1588 391 
Q 1994 391 2212 530 
Q 2431 669 2431 922 
Q 2431 1156 2273 1281 
Q 2116 1406 1581 1522 
L 1381 1569 
Q 847 1681 609 1914 
Q 372 2147 372 2553 
Q 372 3047 722 3315 
Q 1072 3584 1716 3584 
Q 2034 3584 2315 3537 
Q 2597 3491 2834 3397 
z
" transform="scale(0.015625)"/>
      <path id="DejaVuSans-63" d="M 3122 3366 
L 3122 2828 
Q 2878 2963 2633 3030 
Q 2388 3097 2138 3097 
Q 1578 3097 1268 2742 
Q 959 2388 959 1747 
Q 959 1106 1268 751 
Q 1578 397 2138 397 
Q 2388 397 2633 464 
Q 2878 531 3122 666 
L 3122 134 
Q 2881 22 2623 -34 
Q 2366 -91 2075 -91 
Q 1284 -91 818 406 
Q 353 903 353 1747 
Q 353 2603 823 3093 
Q 1294 3584 2113 3584 
Q 2378 3584 2631 3529 
Q 2884 3475 3122 3366 
z
" transform="scale(0.015625)"/>
      <path id="DejaVuSans-62" d="M 3116 1747 
Q 3116 2381 2855 2742 
Q 2594 3103 2138 3103 
Q 1681 3103 1420 2742 
Q 1159 2381 1159 1747 
Q 1159 1113 1420 752 
Q 1681 391 2138 391 
Q 2594 391 2855 752 
Q 3116 1113 3116 1747 
z
M 1159 2969 
Q 1341 3281 1617 3432 
Q 1894 3584 2278 3584 
Q 2916 3584 3314 3078 
Q 3713 2572 3713 1747 
Q 3713 922 3314 415 
Q 2916 -91 2278 -91 
Q 1894 -91 1617 61 
Q 1341 213 1159 525 
L 1159 0 
L 581 0 
L 581 4863 
L 1159 4863 
L 1159 2969 
z
" transform="scale(0.015625)"/>
     </defs>
     <use xlink:href="#DejaVuSans-53"/>
     <use xlink:href="#DejaVuSans-65" x="63.476562"/>
     <use xlink:href="#DejaVuSans-72" x="125"/>
     <use xlink:href="#DejaVuSans-69" x="166.113281"/>
     <use xlink:href="#DejaVuSans-65" x="193.896484"/>
     <use xlink:href="#DejaVuSans-20" x="255.419922"/>
     <use xlink:href="#DejaVuSans-74" x="287.207031"/>
     <use xlink:href="#DejaVuSans-65" x="326.416016"/>
     <use xlink:href="#DejaVuSans-6d" x="387.939453"/>
     <use xlink:href="#DejaVuSans-70" x="485.351562"/>
     <use xlink:href="#DejaVuSans-6f" x="548.828125"/>
     <use xlink:href="#DejaVuSans-72" x="610.009766"/>
     <use xlink:href="#DejaVuSans-61" x="651.123047"/>
     <use xlink:href="#DejaVuSans-6c" x="712.402344"/>
     <use xlink:href="#DejaVuSans-20" x="740.185547"/>
     <use xlink:href="#DejaVuSans-64" x="771.972656"/>
     <use xlink:href="#DejaVuSans-61" x="835.449219"/>
     <use xlink:href="#DejaVuSans-20" x="896.728516"/>
     <use xlink:href="#DejaVuSans-6d" x="928.515625"/>
     <use xlink:href="#DejaVuSans-e9" x="1025.927734"/>
     <use xlink:href="#DejaVuSans-64" x="1087.451172"/>
     <use xlink:href="#DejaVuSans-69" x="1150.927734"/>
     <use xlink:href="#DejaVuSans-61" x="1178.710938"/>
     <use xlink:href="#DejaVuSans-20" x="1239.990234"/>
     <use xlink:href="#DejaVuSans-6d" x="1271.777344"/>
     <use xlink:href="#DejaVuSans-65" x="1369.189453"/>
     <use xlink:href="#DejaVuSans-6e" x="1430.712891"/>
     <use xlink:href="#DejaVuSans-73" x="1494.091797"/>
     <use xlink:href="#DejaVuSans-61" x="1546.191406"/>
     <use xlink:href="#DejaVuSans-6c" x="1607.470703"/>
     <use xlink:href="#DejaVuSans-20" x="1635.253906"/>
     <use xlink:href="#DejaVuSans-64" x="1667.041016"/>
     <use xlink:href="#DejaVuSans-61" x="1730.517578"/>
     <use xlink:href="#DejaVuSans-20" x="1791.796875"/>
     <use xlink:href="#DejaVuSans-63" x="1823.583984"/>
     <use xlink:href="#DejaVuSans-6f" x="1878.564453"/>
     <use xlink:href="#DejaVuSans-74" x="1939.746094"/>
     <use xlink:href="#DejaVuSans-61" x="1978.955078"/>
     <use xlink:href="#DejaVuSans-e7" x="2040.234375"/>
     <use xlink:href="#DejaVuSans-e3" x="2095.214844"/>
     <use xlink:href="#DejaVuSans-6f" x="2156.494141"/>
     <use xlink:href="#DejaVuSans-20" x="2217.675781"/>
     <use xlink:href="#DejaVuSans-64" x="2249.462891"/>
     <use xlink:href="#DejaVuSans-6f" x="2312.939453"/>
     <use xlink:href="#DejaVuSans-20" x="2374.121094"/>
     <use xlink:href="#DejaVuSans-43" x="2405.908203"/>
     <use xlink:href="#DejaVuSans-72" x="2475.732422"/>
     <use xlink:href="#DejaVuSans-e9" x="2516.814453"/>
     <use xlink:href="#DejaVuSans-64" x="2578.337891"/>
     <use xlink:href="#DejaVuSans-69" x="2641.814453"/>
     <use xlink:href="#DejaVuSans-74" x="2669.597656"/>
     <use xlink:href="#DejaVuSans-6f" x="2708.806641"/>
     <use xlink:href="#DejaVuSans-20" x="2769.988281"/>
     <use xlink:href="#DejaVuSans-64" x="2801.775391"/>
     <use xlink:href="#DejaVuSans-65" x="2865.251953"/>
     <use xlink:href="#DejaVuSans-20" x="2926.775391"/>
     <use xlink:href="#DejaVuSans-43" x="2958.5625"/>
     <use xlink:href="#DejaVuSans-61" x="3028.386719"/>
     <use xlink:href="#DejaVuSans-72" x="3089.666016"/>
     <use xlink:href="#DejaVuSans-62" x="3130.779297"/>
     <use xlink:href="#DejaVuSans-6f" x="3194.255859"/>
     <use xlink:href="#DejaVuSans-6e" x="3255.4375"/>
     <use xlink:href="#DejaVuSans-6f" x="3318.816406"/>
    </g>
   </g>
   <g id="legend_1">
    <g id="patch_7">
     <path d="M 76.12 80.278125 
L 172.043438 80.278125 
Q 174.043438 80.278125 174.043438 78.278125 
L 174.043438 64.6 
Q 174.043438 62.6 172.043438 62.6 
L 76.12 62.6 
Q 74.12 62.6 74.12 64.6 
L 74.12 78.278125 
Q 74.12 80.278125 76.12 80.278125 
z
" style="fill: #e5e5e5; stroke: #ffffff; stroke-width: 0.24; stroke-linejoin: miter"/>
    </g>
    <g id="line2d_51">
     <path d="M 81.12 70.698438 
L 95.12 70.698438 
" style="fill: none; stroke-dasharray: 6,6; stroke-dashoffset: 0; stroke: #348abd; stroke-width: 1.4"/>
    </g>
    <g id="text_19">
     <!-- Média móvel -->
     <g transform="translate(106.12 74.198438) scale(0.1 -0.1)">
      <defs>
       <path id="DejaVuSans-4d" d="M 628 4666 
L 1569 4666 
L 2759 1491 
L 3956 4666 
L 4897 4666 
L 4897 0 
L 4281 0 
L 4281 4097 
L 3078 897 
L 2444 897 
L 1241 4097 
L 1241 0 
L 628 0 
L 628 4666 
z
" transform="scale(0.015625)"/>
       <path id="DejaVuSans-f3" d="M 1959 3097 
Q 1497 3097 1228 2736 
Q 959 2375 959 1747 
Q 959 1119 1226 758 
Q 1494 397 1959 397 
Q 2419 397 2687 759 
Q 2956 1122 2956 1747 
Q 2956 2369 2687 2733 
Q 2419 3097 1959 3097 
z
M 1959 3584 
Q 2709 3584 3137 3096 
Q 3566 2609 3566 1747 
Q 3566 888 3137 398 
Q 2709 -91 1959 -91 
Q 1206 -91 779 398 
Q 353 888 353 1747 
Q 353 2609 779 3096 
Q 1206 3584 1959 3584 
z
M 2394 5119 
L 3016 5119 
L 1998 3944 
L 1519 3944 
L 2394 5119 
z
" transform="scale(0.015625)"/>
       <path id="DejaVuSans-76" d="M 191 3500 
L 800 3500 
L 1894 563 
L 2988 3500 
L 3597 3500 
L 2284 0 
L 1503 0 
L 191 3500 
z
" transform="scale(0.015625)"/>
      </defs>
      <use xlink:href="#DejaVuSans-4d"/>
      <use xlink:href="#DejaVuSans-e9" x="86.279297"/>
      <use xlink:href="#DejaVuSans-64" x="147.802734"/>
      <use xlink:href="#DejaVuSans-69" x="211.279297"/>
      <use xlink:href="#DejaVuSans-61" x="239.0625"/>
      <use xlink:href="#DejaVuSans-20" x="300.341797"/>
      <use xlink:href="#DejaVuSans-6d" x="332.128906"/>
      <use xlink:href="#DejaVuSans-f3" x="429.541016"/>
      <use xlink:href="#DejaVuSans-76" x="490.722656"/>
      <use xlink:href="#DejaVuSans-65" x="549.902344"/>
      <use xlink:href="#DejaVuSans-6c" x="611.425781"/>
     </g>
    </g>
   </g>
  </g>
 </g>
 <defs>
  <clipPath id="p903890745e">
   <rect x="69.12" y="57.6" width="751.68" height="478.08"/>
  </clipPath>
 </defs>
</svg>
