<?xml version="1.0" encoding="utf-8" standalone="no"?>
<!DOCTYPE svg PUBLIC "-//W3C//DTD SVG 1.1//EN"
  "http://www.w3.org/Graphics/SVG/1.1/DTD/svg11.dtd">
<svg xmlns:xlink="http://www.w3.org/1999/xlink" width="864pt" height="576pt" viewBox="0 0 864 576" xmlns="http://www.w3.org/2000/svg" version="1.1">
 <metadata>
  <rdf:RDF xmlns:dc="http://purl.org/dc/elements/1.1/" xmlns:cc="http://creativecommons.org/ns#" xmlns:rdf="http://www.w3.org/1999/02/22-rdf-syntax-ns#">
   <cc:Work>
    <dc:type rdf:resource="http://purl.org/dc/dcmitype/StillImage"/>
    <dc:date>2023-04-26T01:03:24.004725</dc:date>
    <dc:format>image/svg+xml</dc:format>
    <dc:creator>
     <cc:Agent>
      <dc:title>Matplotlib v3.6.1, https://matplotlib.org/</dc:title>
     </cc:Agent>
    </dc:creator>
   </cc:Work>
  </rdf:RDF>
 </metadata>
 <defs>
  <style type="text/css">*{stroke-linejoin: round; stroke-linecap: butt}</style>
 </defs>
 <g id="figure_1">
  <g id="patch_1">
   <path d="M 0 576 
L 864 576 
L 864 0 
L 0 0 
z
" style="fill: #ffffff"/>
  </g>
  <g id="axes_1">
   <g id="patch_2">
    <path d="M 108 512.64 
L 777.6 512.64 
L 777.6 69.12 
L 108 69.12 
z
" style="fill: #ffffff"/>
   </g>
   <g id="PolyCollection_1">
    <defs>
     <path id="meb24f097a9" d="M 138.436364 -127.891071 
L 138.436364 -86.418292 
L 142.712421 -87.18759 
L 147.446627 -85.370462 
L 152.028117 -83.52 
L 156.762323 -83.719701 
L 161.343812 -85.810484 
L 166.078019 -85.566222 
L 170.812225 -86.159986 
L 175.393714 -88.782669 
L 180.12792 -87.253519 
L 184.70941 -86.2118 
L 189.443616 -87.054302 
L 194.177822 -89.819749 
L 198.453879 -93.415121 
L 203.188086 -91.494779 
L 207.769575 -91.035744 
L 212.503781 -90.049954 
L 217.085271 -91.318712 
L 221.819477 -92.216265 
L 226.553683 -92.603079 
L 231.135173 -91.318906 
L 235.869379 -92.750606 
L 240.450869 -94.64511 
L 245.185075 -95.453926 
L 249.919281 -97.48445 
L 254.195338 -98.506899 
L 258.929544 -97.0421 
L 263.511034 -97.685518 
L 268.24524 -98.114993 
L 272.82673 -98.208119 
L 277.560936 -99.605098 
L 282.295142 -100.340324 
L 286.876632 -99.814126 
L 291.610838 -101.142695 
L 296.192328 -101.408851 
L 300.926534 -100.229736 
L 305.66074 -91.712999 
L 310.089513 -88.642964 
L 314.823719 -88.780203 
L 319.405209 -91.542621 
L 324.139415 -91.120377 
L 328.720905 -89.907354 
L 333.455111 -88.05541 
L 338.189317 -88.066039 
L 342.770807 -87.02573 
L 347.505013 -90.970555 
L 352.086503 -89.622155 
L 356.820709 -90.248112 
L 361.554915 -90.513557 
L 365.830972 -91.235383 
L 370.565178 -90.494883 
L 375.146668 -90.357377 
L 379.880874 -90.498036 
L 384.462364 -91.260508 
L 389.19657 -92.150058 
L 393.930776 -93.939036 
L 398.512266 -95.947866 
L 403.246472 -96.716952 
L 407.827962 -97.83923 
L 412.562168 -97.638537 
L 417.296374 -115.587333 
L 421.572431 -118.217278 
L 426.306637 -127.775725 
L 430.888127 -131.959813 
L 435.622333 -135.787256 
L 440.203822 -135.717036 
L 444.938029 -142.231645 
L 449.672235 -148.163387 
L 454.253724 -150.925375 
L 458.98793 -150.320054 
L 463.56942 -151.884506 
L 468.303626 -158.456966 
L 473.037832 -172.244776 
L 477.31389 -163.828803 
L 482.048096 -165.460841 
L 486.629585 -177.225023 
L 491.363791 -175.341689 
L 495.945281 -175.815324 
L 500.679487 -183.901792 
L 505.413693 -176.869321 
L 509.995183 -176.475356 
L 514.729389 -175.369005 
L 519.310879 -171.524933 
L 524.045085 -175.124637 
L 528.779291 -169.346484 
L 533.208065 -170.774862 
L 537.942271 -154.464344 
L 542.52376 -160.792885 
L 547.257967 -159.974537 
L 551.839456 -170.402356 
L 556.573662 -178.361746 
L 561.307868 -178.166763 
L 565.889358 -179.859969 
L 570.623564 -172.327389 
L 575.205054 -177.451146 
L 579.93926 -187.551277 
L 584.673466 -237.516536 
L 588.949523 -254.978514 
L 593.683729 -258.243755 
L 598.265219 -260.415821 
L 602.999425 -278.970446 
L 607.580915 -290.129818 
L 612.315121 -287.437533 
L 617.049327 -294.681451 
L 621.630817 -307.692564 
L 626.365023 -305.117335 
L 630.946513 -323.719705 
L 635.680719 -346.340766 
L 640.414925 -408.212048 
L 644.690982 -418.914529 
L 649.425188 -391.916795 
L 654.006678 -402.031371 
L 658.740884 -406.782171 
L 663.322374 -407.484234 
L 668.05658 -392.531399 
L 672.790786 -418.734793 
L 677.372276 -367.130379 
L 682.106482 -375.134745 
L 686.687972 -387.959191 
L 691.422178 -408.733944 
L 696.156384 -409.162713 
L 700.432441 -445.247221 
L 705.166647 -428.456913 
L 709.748137 -437.6061 
L 714.482343 -420.781191 
L 719.063833 -424.570268 
L 723.798039 -436.10047 
L 728.532245 -439.319148 
L 733.113734 -425.011648 
L 737.847941 -428.624173 
L 742.42943 -422.53313 
L 747.163636 -422.370159 
L 747.163636 -463.842938 
L 747.163636 -463.842938 
L 742.42943 -464.005909 
L 737.847941 -470.096952 
L 733.113734 -466.484427 
L 728.532245 -480.791928 
L 723.798039 -477.57325 
L 719.063833 -466.043047 
L 714.482343 -462.25397 
L 709.748137 -479.07888 
L 705.166647 -469.929693 
L 700.432441 -486.72 
L 696.156384 -450.635492 
L 691.422178 -450.206723 
L 686.687972 -429.43197 
L 682.106482 -416.607524 
L 677.372276 -408.603158 
L 672.790786 -460.207572 
L 668.05658 -434.004178 
L 663.322374 -448.957014 
L 658.740884 -448.254951 
L 654.006678 -443.50415 
L 649.425188 -433.389574 
L 644.690982 -460.387308 
L 640.414925 -449.684828 
L 635.680719 -387.813546 
L 630.946513 -365.192484 
L 626.365023 -346.590114 
L 621.630817 -349.165344 
L 617.049327 -336.154231 
L 612.315121 -328.910312 
L 607.580915 -331.602598 
L 602.999425 -320.443225 
L 598.265219 -301.8886 
L 593.683729 -299.716535 
L 588.949523 -296.451293 
L 584.673466 -278.989315 
L 579.93926 -229.024056 
L 575.205054 -218.923925 
L 570.623564 -213.800168 
L 565.889358 -221.332748 
L 561.307868 -219.639543 
L 556.573662 -219.834526 
L 551.839456 -211.875136 
L 547.257967 -201.447316 
L 542.52376 -202.265664 
L 537.942271 -195.937123 
L 533.208065 -212.247641 
L 528.779291 -210.819263 
L 524.045085 -216.597416 
L 519.310879 -212.997713 
L 514.729389 -216.841785 
L 509.995183 -217.948136 
L 505.413693 -218.342101 
L 500.679487 -225.374572 
L 495.945281 -217.288103 
L 491.363791 -216.814468 
L 486.629585 -218.697803 
L 482.048096 -206.933621 
L 477.31389 -205.301582 
L 473.037832 -213.717555 
L 468.303626 -199.929745 
L 463.56942 -193.357285 
L 458.98793 -191.792834 
L 454.253724 -192.398155 
L 449.672235 -189.636166 
L 444.938029 -183.704425 
L 440.203822 -177.189816 
L 435.622333 -177.260035 
L 430.888127 -173.432592 
L 426.306637 -169.248504 
L 421.572431 -159.690058 
L 417.296374 -157.060112 
L 412.562168 -139.111317 
L 407.827962 -139.312009 
L 403.246472 -138.189731 
L 398.512266 -137.420645 
L 393.930776 -135.411815 
L 389.19657 -133.622838 
L 384.462364 -132.733287 
L 379.880874 -131.970815 
L 375.146668 -131.830156 
L 370.565178 -131.967663 
L 365.830972 -132.708162 
L 361.554915 -131.986337 
L 356.820709 -131.720891 
L 352.086503 -131.094934 
L 347.505013 -132.443335 
L 342.770807 -128.498509 
L 338.189317 -129.538818 
L 333.455111 -129.52819 
L 328.720905 -131.380134 
L 324.139415 -132.593157 
L 319.405209 -133.0154 
L 314.823719 -130.252982 
L 310.089513 -130.115743 
L 305.66074 -133.185779 
L 300.926534 -141.702516 
L 296.192328 -142.881631 
L 291.610838 -142.615474 
L 286.876632 -141.286906 
L 282.295142 -141.813103 
L 277.560936 -141.077878 
L 272.82673 -139.680898 
L 268.24524 -139.587772 
L 263.511034 -139.158298 
L 258.929544 -138.514879 
L 254.195338 -139.979679 
L 249.919281 -138.957229 
L 245.185075 -136.926705 
L 240.450869 -136.117889 
L 235.869379 -134.223386 
L 231.135173 -132.791685 
L 226.553683 -134.075858 
L 221.819477 -133.689045 
L 217.085271 -132.791491 
L 212.503781 -131.522733 
L 207.769575 -132.508523 
L 203.188086 -132.967558 
L 198.453879 -134.8879 
L 194.177822 -131.292529 
L 189.443616 -128.527082 
L 184.70941 -127.68458 
L 180.12792 -128.726298 
L 175.393714 -130.255448 
L 170.812225 -127.632766 
L 166.078019 -127.039001 
L 161.343812 -127.283263 
L 156.762323 -125.192481 
L 152.028117 -124.992779 
L 147.446627 -126.843242 
L 142.712421 -128.660369 
L 138.436364 -127.891071 
z
" style="stroke: #0000ff; stroke-opacity: 0.1; stroke-width: 0.24"/>
    </defs>
    <g clip-path="url(#p1dddf0533f)">
     <use xlink:href="#meb24f097a9" x="0" y="576" style="fill: #0000ff; fill-opacity: 0.1; stroke: #0000ff; stroke-opacity: 0.1; stroke-width: 0.24"/>
    </g>
   </g>
   <g id="matplotlib.axis_1">
    <g id="xtick_1">
     <g id="line2d_1">
      <defs>
       <path id="ma50cac21d9" d="M 0 0 
L 0 3.5 
" style="stroke: #000000; stroke-width: 0.8"/>
      </defs>
      <g>
       <use xlink:href="#ma50cac21d9" x="189.596333" y="512.64" style="stroke: #000000; stroke-width: 0.8"/>
      </g>
     </g>
     <g id="text_1">
      <!-- 2014 -->
      <g transform="translate(179.416333 527.81875) scale(0.08 -0.08)">
       <defs>
        <path id="DejaVuSans-32" d="M 1228 531 
L 3431 531 
L 3431 0 
L 469 0 
L 469 531 
Q 828 903 1448 1529 
Q 2069 2156 2228 2338 
Q 2531 2678 2651 2914 
Q 2772 3150 2772 3378 
Q 2772 3750 2511 3984 
Q 2250 4219 1831 4219 
Q 1534 4219 1204 4116 
Q 875 4013 500 3803 
L 500 4441 
Q 881 4594 1212 4672 
Q 1544 4750 1819 4750 
Q 2544 4750 2975 4387 
Q 3406 4025 3406 3419 
Q 3406 3131 3298 2873 
Q 3191 2616 2906 2266 
Q 2828 2175 2409 1742 
Q 1991 1309 1228 531 
z
" transform="scale(0.015625)"/>
        <path id="DejaVuSans-30" d="M 2034 4250 
Q 1547 4250 1301 3770 
Q 1056 3291 1056 2328 
Q 1056 1369 1301 889 
Q 1547 409 2034 409 
Q 2525 409 2770 889 
Q 3016 1369 3016 2328 
Q 3016 3291 2770 3770 
Q 2525 4250 2034 4250 
z
M 2034 4750 
Q 2819 4750 3233 4129 
Q 3647 3509 3647 2328 
Q 3647 1150 3233 529 
Q 2819 -91 2034 -91 
Q 1250 -91 836 529 
Q 422 1150 422 2328 
Q 422 3509 836 4129 
Q 1250 4750 2034 4750 
z
" transform="scale(0.015625)"/>
        <path id="DejaVuSans-31" d="M 794 531 
L 1825 531 
L 1825 4091 
L 703 3866 
L 703 4441 
L 1819 4666 
L 2450 4666 
L 2450 531 
L 3481 531 
L 3481 0 
L 794 0 
L 794 531 
z
" transform="scale(0.015625)"/>
        <path id="DejaVuSans-34" d="M 2419 4116 
L 825 1625 
L 2419 1625 
L 2419 4116 
z
M 2253 4666 
L 3047 4666 
L 3047 1625 
L 3713 1625 
L 3713 1100 
L 3047 1100 
L 3047 0 
L 2419 0 
L 2419 1100 
L 313 1100 
L 313 1709 
L 2253 4666 
z
" transform="scale(0.015625)"/>
       </defs>
       <use xlink:href="#DejaVuSans-32"/>
       <use xlink:href="#DejaVuSans-30" x="63.623047"/>
       <use xlink:href="#DejaVuSans-31" x="127.246094"/>
       <use xlink:href="#DejaVuSans-34" x="190.869141"/>
      </g>
     </g>
    </g>
    <g id="xtick_2">
     <g id="line2d_2">
      <g>
       <use xlink:href="#ma50cac21d9" x="301.07925" y="512.64" style="stroke: #000000; stroke-width: 0.8"/>
      </g>
     </g>
     <g id="text_2">
      <!-- 2016 -->
      <g transform="translate(290.89925 527.81875) scale(0.08 -0.08)">
       <defs>
        <path id="DejaVuSans-36" d="M 2113 2584 
Q 1688 2584 1439 2293 
Q 1191 2003 1191 1497 
Q 1191 994 1439 701 
Q 1688 409 2113 409 
Q 2538 409 2786 701 
Q 3034 994 3034 1497 
Q 3034 2003 2786 2293 
Q 2538 2584 2113 2584 
z
M 3366 4563 
L 3366 3988 
Q 3128 4100 2886 4159 
Q 2644 4219 2406 4219 
Q 1781 4219 1451 3797 
Q 1122 3375 1075 2522 
Q 1259 2794 1537 2939 
Q 1816 3084 2150 3084 
Q 2853 3084 3261 2657 
Q 3669 2231 3669 1497 
Q 3669 778 3244 343 
Q 2819 -91 2113 -91 
Q 1303 -91 875 529 
Q 447 1150 447 2328 
Q 447 3434 972 4092 
Q 1497 4750 2381 4750 
Q 2619 4750 2861 4703 
Q 3103 4656 3366 4563 
z
" transform="scale(0.015625)"/>
       </defs>
       <use xlink:href="#DejaVuSans-32"/>
       <use xlink:href="#DejaVuSans-30" x="63.623047"/>
       <use xlink:href="#DejaVuSans-31" x="127.246094"/>
       <use xlink:href="#DejaVuSans-36" x="190.869141"/>
      </g>
     </g>
    </g>
    <g id="xtick_3">
     <g id="line2d_3">
      <g>
       <use xlink:href="#ma50cac21d9" x="412.714884" y="512.64" style="stroke: #000000; stroke-width: 0.8"/>
      </g>
     </g>
     <g id="text_3">
      <!-- 2018 -->
      <g transform="translate(402.534884 527.81875) scale(0.08 -0.08)">
       <defs>
        <path id="DejaVuSans-38" d="M 2034 2216 
Q 1584 2216 1326 1975 
Q 1069 1734 1069 1313 
Q 1069 891 1326 650 
Q 1584 409 2034 409 
Q 2484 409 2743 651 
Q 3003 894 3003 1313 
Q 3003 1734 2745 1975 
Q 2488 2216 2034 2216 
z
M 1403 2484 
Q 997 2584 770 2862 
Q 544 3141 544 3541 
Q 544 4100 942 4425 
Q 1341 4750 2034 4750 
Q 2731 4750 3128 4425 
Q 3525 4100 3525 3541 
Q 3525 3141 3298 2862 
Q 3072 2584 2669 2484 
Q 3125 2378 3379 2068 
Q 3634 1759 3634 1313 
Q 3634 634 3220 271 
Q 2806 -91 2034 -91 
Q 1263 -91 848 271 
Q 434 634 434 1313 
Q 434 1759 690 2068 
Q 947 2378 1403 2484 
z
M 1172 3481 
Q 1172 3119 1398 2916 
Q 1625 2713 2034 2713 
Q 2441 2713 2670 2916 
Q 2900 3119 2900 3481 
Q 2900 3844 2670 4047 
Q 2441 4250 2034 4250 
Q 1625 4250 1398 4047 
Q 1172 3844 1172 3481 
z
" transform="scale(0.015625)"/>
       </defs>
       <use xlink:href="#DejaVuSans-32"/>
       <use xlink:href="#DejaVuSans-30" x="63.623047"/>
       <use xlink:href="#DejaVuSans-31" x="127.246094"/>
       <use xlink:href="#DejaVuSans-38" x="190.869141"/>
      </g>
     </g>
    </g>
    <g id="xtick_4">
     <g id="line2d_4">
      <g>
       <use xlink:href="#ma50cac21d9" x="524.197801" y="512.64" style="stroke: #000000; stroke-width: 0.8"/>
      </g>
     </g>
     <g id="text_4">
      <!-- 2020 -->
      <g transform="translate(514.017801 527.81875) scale(0.08 -0.08)">
       <use xlink:href="#DejaVuSans-32"/>
       <use xlink:href="#DejaVuSans-30" x="63.623047"/>
       <use xlink:href="#DejaVuSans-32" x="127.246094"/>
       <use xlink:href="#DejaVuSans-30" x="190.869141"/>
      </g>
     </g>
    </g>
    <g id="xtick_5">
     <g id="line2d_5">
      <g>
       <use xlink:href="#ma50cac21d9" x="635.833435" y="512.64" style="stroke: #000000; stroke-width: 0.8"/>
      </g>
     </g>
     <g id="text_5">
      <!-- 2022 -->
      <g transform="translate(625.653435 527.81875) scale(0.08 -0.08)">
       <use xlink:href="#DejaVuSans-32"/>
       <use xlink:href="#DejaVuSans-30" x="63.623047"/>
       <use xlink:href="#DejaVuSans-32" x="127.246094"/>
       <use xlink:href="#DejaVuSans-32" x="190.869141"/>
      </g>
     </g>
    </g>
    <g id="xtick_6">
     <g id="line2d_6">
      <g>
       <use xlink:href="#ma50cac21d9" x="747.316353" y="512.64" style="stroke: #000000; stroke-width: 0.8"/>
      </g>
     </g>
     <g id="text_6">
      <!-- 2024 -->
      <g transform="translate(737.136353 527.81875) scale(0.08 -0.08)">
       <use xlink:href="#DejaVuSans-32"/>
       <use xlink:href="#DejaVuSans-30" x="63.623047"/>
       <use xlink:href="#DejaVuSans-32" x="127.246094"/>
       <use xlink:href="#DejaVuSans-34" x="190.869141"/>
      </g>
     </g>
    </g>
   </g>
   <g id="matplotlib.axis_2">
    <g id="ytick_1">
     <g id="line2d_7">
      <defs>
       <path id="m5608c05d3a" d="M 0 0 
L -3.5 0 
" style="stroke: #000000; stroke-width: 0.8"/>
      </defs>
      <g>
       <use xlink:href="#m5608c05d3a" x="108" y="487.416611" style="stroke: #000000; stroke-width: 0.8"/>
      </g>
     </g>
     <g id="text_7">
      <!-- 0 -->
      <g transform="translate(93.81 490.455986) scale(0.08 -0.08)">
       <use xlink:href="#DejaVuSans-30"/>
      </g>
     </g>
    </g>
    <g id="ytick_2">
     <g id="line2d_8">
      <g>
       <use xlink:href="#m5608c05d3a" x="108" y="405.931083" style="stroke: #000000; stroke-width: 0.8"/>
      </g>
     </g>
     <g id="text_8">
      <!-- 20 -->
      <g transform="translate(88.72 408.970458) scale(0.08 -0.08)">
       <use xlink:href="#DejaVuSans-32"/>
       <use xlink:href="#DejaVuSans-30" x="63.623047"/>
      </g>
     </g>
    </g>
    <g id="ytick_3">
     <g id="line2d_9">
      <g>
       <use xlink:href="#m5608c05d3a" x="108" y="324.445556" style="stroke: #000000; stroke-width: 0.8"/>
      </g>
     </g>
     <g id="text_9">
      <!-- 40 -->
      <g transform="translate(88.72 327.484931) scale(0.08 -0.08)">
       <use xlink:href="#DejaVuSans-34"/>
       <use xlink:href="#DejaVuSans-30" x="63.623047"/>
      </g>
     </g>
    </g>
    <g id="ytick_4">
     <g id="line2d_10">
      <g>
       <use xlink:href="#m5608c05d3a" x="108" y="242.960028" style="stroke: #000000; stroke-width: 0.8"/>
      </g>
     </g>
     <g id="text_10">
      <!-- 60 -->
      <g transform="translate(88.72 245.999403) scale(0.08 -0.08)">
       <use xlink:href="#DejaVuSans-36"/>
       <use xlink:href="#DejaVuSans-30" x="63.623047"/>
      </g>
     </g>
    </g>
    <g id="ytick_5">
     <g id="line2d_11">
      <g>
       <use xlink:href="#m5608c05d3a" x="108" y="161.4745" style="stroke: #000000; stroke-width: 0.8"/>
      </g>
     </g>
     <g id="text_11">
      <!-- 80 -->
      <g transform="translate(88.72 164.513875) scale(0.08 -0.08)">
       <use xlink:href="#DejaVuSans-38"/>
       <use xlink:href="#DejaVuSans-30" x="63.623047"/>
      </g>
     </g>
    </g>
    <g id="ytick_6">
     <g id="line2d_12">
      <g>
       <use xlink:href="#m5608c05d3a" x="108" y="79.988973" style="stroke: #000000; stroke-width: 0.8"/>
      </g>
     </g>
     <g id="text_12">
      <!-- 100 -->
      <g transform="translate(83.63 83.028348) scale(0.08 -0.08)">
       <use xlink:href="#DejaVuSans-31"/>
       <use xlink:href="#DejaVuSans-30" x="63.623047"/>
       <use xlink:href="#DejaVuSans-30" x="127.246094"/>
      </g>
     </g>
    </g>
    <g id="text_13">
     <!-- Cotação do Crédito (em EUR) -->
     <g transform="translate(77.134375 378.807187) rotate(-90) scale(0.12 -0.12)">
      <defs>
       <path id="DejaVuSans-43" d="M 4122 4306 
L 4122 3641 
Q 3803 3938 3442 4084 
Q 3081 4231 2675 4231 
Q 1875 4231 1450 3742 
Q 1025 3253 1025 2328 
Q 1025 1406 1450 917 
Q 1875 428 2675 428 
Q 3081 428 3442 575 
Q 3803 722 4122 1019 
L 4122 359 
Q 3791 134 3420 21 
Q 3050 -91 2638 -91 
Q 1578 -91 968 557 
Q 359 1206 359 2328 
Q 359 3453 968 4101 
Q 1578 4750 2638 4750 
Q 3056 4750 3426 4639 
Q 3797 4528 4122 4306 
z
" transform="scale(0.015625)"/>
       <path id="DejaVuSans-6f" d="M 1959 3097 
Q 1497 3097 1228 2736 
Q 959 2375 959 1747 
Q 959 1119 1226 758 
Q 1494 397 1959 397 
Q 2419 397 2687 759 
Q 2956 1122 2956 1747 
Q 2956 2369 2687 2733 
Q 2419 3097 1959 3097 
z
M 1959 3584 
Q 2709 3584 3137 3096 
Q 3566 2609 3566 1747 
Q 3566 888 3137 398 
Q 2709 -91 1959 -91 
Q 1206 -91 779 398 
Q 353 888 353 1747 
Q 353 2609 779 3096 
Q 1206 3584 1959 3584 
z
" transform="scale(0.015625)"/>
       <path id="DejaVuSans-74" d="M 1172 4494 
L 1172 3500 
L 2356 3500 
L 2356 3053 
L 1172 3053 
L 1172 1153 
Q 1172 725 1289 603 
Q 1406 481 1766 481 
L 2356 481 
L 2356 0 
L 1766 0 
Q 1100 0 847 248 
Q 594 497 594 1153 
L 594 3053 
L 172 3053 
L 172 3500 
L 594 3500 
L 594 4494 
L 1172 4494 
z
" transform="scale(0.015625)"/>
       <path id="DejaVuSans-61" d="M 2194 1759 
Q 1497 1759 1228 1600 
Q 959 1441 959 1056 
Q 959 750 1161 570 
Q 1363 391 1709 391 
Q 2188 391 2477 730 
Q 2766 1069 2766 1631 
L 2766 1759 
L 2194 1759 
z
M 3341 1997 
L 3341 0 
L 2766 0 
L 2766 531 
Q 2569 213 2275 61 
Q 1981 -91 1556 -91 
Q 1019 -91 701 211 
Q 384 513 384 1019 
Q 384 1609 779 1909 
Q 1175 2209 1959 2209 
L 2766 2209 
L 2766 2266 
Q 2766 2663 2505 2880 
Q 2244 3097 1772 3097 
Q 1472 3097 1187 3025 
Q 903 2953 641 2809 
L 641 3341 
Q 956 3463 1253 3523 
Q 1550 3584 1831 3584 
Q 2591 3584 2966 3190 
Q 3341 2797 3341 1997 
z
" transform="scale(0.015625)"/>
       <path id="DejaVuSans-e7" d="M 3122 3366 
L 3122 2828 
Q 2878 2963 2633 3030 
Q 2388 3097 2138 3097 
Q 1578 3097 1268 2742 
Q 959 2388 959 1747 
Q 959 1106 1268 751 
Q 1578 397 2138 397 
Q 2388 397 2633 464 
Q 2878 531 3122 666 
L 3122 134 
Q 2881 22 2623 -34 
Q 2366 -91 2075 -91 
Q 1284 -91 818 406 
Q 353 903 353 1747 
Q 353 2603 823 3093 
Q 1294 3584 2113 3584 
Q 2378 3584 2631 3529 
Q 2884 3475 3122 3366 
z
M 2311 0 
Q 2482 -194 2566 -358 
Q 2651 -522 2651 -672 
Q 2651 -950 2463 -1092 
Q 2276 -1234 1907 -1234 
Q 1764 -1234 1628 -1215 
Q 1492 -1197 1357 -1159 
L 1357 -750 
Q 1464 -803 1579 -826 
Q 1695 -850 1842 -850 
Q 2026 -850 2120 -775 
Q 2214 -700 2214 -556 
Q 2214 -463 2146 -327 
Q 2079 -191 1939 0 
L 2311 0 
z
" transform="scale(0.015625)"/>
       <path id="DejaVuSans-e3" d="M 2194 1759 
Q 1497 1759 1228 1600 
Q 959 1441 959 1056 
Q 959 750 1161 570 
Q 1363 391 1709 391 
Q 2188 391 2477 730 
Q 2766 1069 2766 1631 
L 2766 1759 
L 2194 1759 
z
M 3341 1997 
L 3341 0 
L 2766 0 
L 2766 531 
Q 2569 213 2275 61 
Q 1981 -91 1556 -91 
Q 1019 -91 701 211 
Q 384 513 384 1019 
Q 384 1609 779 1909 
Q 1175 2209 1959 2209 
L 2766 2209 
L 2766 2266 
Q 2766 2663 2505 2880 
Q 2244 3097 1772 3097 
Q 1472 3097 1187 3025 
Q 903 2953 641 2809 
L 641 3341 
Q 956 3463 1253 3523 
Q 1550 3584 1831 3584 
Q 2591 3584 2966 3190 
Q 3341 2797 3341 1997 
z
M 1844 4281 
L 1665 4453 
Q 1597 4516 1545 4545 
Q 1494 4575 1453 4575 
Q 1334 4575 1278 4461 
Q 1222 4347 1215 4091 
L 825 4091 
Q 831 4513 990 4742 
Q 1150 4972 1434 4972 
Q 1553 4972 1653 4928 
Q 1753 4884 1869 4781 
L 2047 4609 
Q 2115 4547 2167 4517 
Q 2219 4488 2259 4488 
Q 2378 4488 2434 4602 
Q 2490 4716 2497 4972 
L 2887 4972 
Q 2881 4550 2721 4320 
Q 2562 4091 2278 4091 
Q 2159 4091 2059 4134 
Q 1959 4178 1844 4281 
z
" transform="scale(0.015625)"/>
       <path id="DejaVuSans-20" transform="scale(0.015625)"/>
       <path id="DejaVuSans-64" d="M 2906 2969 
L 2906 4863 
L 3481 4863 
L 3481 0 
L 2906 0 
L 2906 525 
Q 2725 213 2448 61 
Q 2172 -91 1784 -91 
Q 1150 -91 751 415 
Q 353 922 353 1747 
Q 353 2572 751 3078 
Q 1150 3584 1784 3584 
Q 2172 3584 2448 3432 
Q 2725 3281 2906 2969 
z
M 947 1747 
Q 947 1113 1208 752 
Q 1469 391 1925 391 
Q 2381 391 2643 752 
Q 2906 1113 2906 1747 
Q 2906 2381 2643 2742 
Q 2381 3103 1925 3103 
Q 1469 3103 1208 2742 
Q 947 2381 947 1747 
z
" transform="scale(0.015625)"/>
       <path id="DejaVuSans-72" d="M 2631 2963 
Q 2534 3019 2420 3045 
Q 2306 3072 2169 3072 
Q 1681 3072 1420 2755 
Q 1159 2438 1159 1844 
L 1159 0 
L 581 0 
L 581 3500 
L 1159 3500 
L 1159 2956 
Q 1341 3275 1631 3429 
Q 1922 3584 2338 3584 
Q 2397 3584 2469 3576 
Q 2541 3569 2628 3553 
L 2631 2963 
z
" transform="scale(0.015625)"/>
       <path id="DejaVuSans-e9" d="M 3597 1894 
L 3597 1613 
L 953 1613 
Q 991 1019 1311 708 
Q 1631 397 2203 397 
Q 2534 397 2845 478 
Q 3156 559 3463 722 
L 3463 178 
Q 3153 47 2828 -22 
Q 2503 -91 2169 -91 
Q 1331 -91 842 396 
Q 353 884 353 1716 
Q 353 2575 817 3079 
Q 1281 3584 2069 3584 
Q 2775 3584 3186 3129 
Q 3597 2675 3597 1894 
z
M 3022 2063 
Q 3016 2534 2758 2815 
Q 2500 3097 2075 3097 
Q 1594 3097 1305 2825 
Q 1016 2553 972 2059 
L 3022 2063 
z
M 2466 5119 
L 3088 5119 
L 2070 3944 
L 1591 3944 
L 2466 5119 
z
" transform="scale(0.015625)"/>
       <path id="DejaVuSans-69" d="M 603 3500 
L 1178 3500 
L 1178 0 
L 603 0 
L 603 3500 
z
M 603 4863 
L 1178 4863 
L 1178 4134 
L 603 4134 
L 603 4863 
z
" transform="scale(0.015625)"/>
       <path id="DejaVuSans-28" d="M 1984 4856 
Q 1566 4138 1362 3434 
Q 1159 2731 1159 2009 
Q 1159 1288 1364 580 
Q 1569 -128 1984 -844 
L 1484 -844 
Q 1016 -109 783 600 
Q 550 1309 550 2009 
Q 550 2706 781 3412 
Q 1013 4119 1484 4856 
L 1984 4856 
z
" transform="scale(0.015625)"/>
       <path id="DejaVuSans-65" d="M 3597 1894 
L 3597 1613 
L 953 1613 
Q 991 1019 1311 708 
Q 1631 397 2203 397 
Q 2534 397 2845 478 
Q 3156 559 3463 722 
L 3463 178 
Q 3153 47 2828 -22 
Q 2503 -91 2169 -91 
Q 1331 -91 842 396 
Q 353 884 353 1716 
Q 353 2575 817 3079 
Q 1281 3584 2069 3584 
Q 2775 3584 3186 3129 
Q 3597 2675 3597 1894 
z
M 3022 2063 
Q 3016 2534 2758 2815 
Q 2500 3097 2075 3097 
Q 1594 3097 1305 2825 
Q 1016 2553 972 2059 
L 3022 2063 
z
" transform="scale(0.015625)"/>
       <path id="DejaVuSans-6d" d="M 3328 2828 
Q 3544 3216 3844 3400 
Q 4144 3584 4550 3584 
Q 5097 3584 5394 3201 
Q 5691 2819 5691 2113 
L 5691 0 
L 5113 0 
L 5113 2094 
Q 5113 2597 4934 2840 
Q 4756 3084 4391 3084 
Q 3944 3084 3684 2787 
Q 3425 2491 3425 1978 
L 3425 0 
L 2847 0 
L 2847 2094 
Q 2847 2600 2669 2842 
Q 2491 3084 2119 3084 
Q 1678 3084 1418 2786 
Q 1159 2488 1159 1978 
L 1159 0 
L 581 0 
L 581 3500 
L 1159 3500 
L 1159 2956 
Q 1356 3278 1631 3431 
Q 1906 3584 2284 3584 
Q 2666 3584 2933 3390 
Q 3200 3197 3328 2828 
z
" transform="scale(0.015625)"/>
       <path id="DejaVuSans-45" d="M 628 4666 
L 3578 4666 
L 3578 4134 
L 1259 4134 
L 1259 2753 
L 3481 2753 
L 3481 2222 
L 1259 2222 
L 1259 531 
L 3634 531 
L 3634 0 
L 628 0 
L 628 4666 
z
" transform="scale(0.015625)"/>
       <path id="DejaVuSans-55" d="M 556 4666 
L 1191 4666 
L 1191 1831 
Q 1191 1081 1462 751 
Q 1734 422 2344 422 
Q 2950 422 3222 751 
Q 3494 1081 3494 1831 
L 3494 4666 
L 4128 4666 
L 4128 1753 
Q 4128 841 3676 375 
Q 3225 -91 2344 -91 
Q 1459 -91 1007 375 
Q 556 841 556 1753 
L 556 4666 
z
" transform="scale(0.015625)"/>
       <path id="DejaVuSans-52" d="M 2841 2188 
Q 3044 2119 3236 1894 
Q 3428 1669 3622 1275 
L 4263 0 
L 3584 0 
L 2988 1197 
Q 2756 1666 2539 1819 
Q 2322 1972 1947 1972 
L 1259 1972 
L 1259 0 
L 628 0 
L 628 4666 
L 2053 4666 
Q 2853 4666 3247 4331 
Q 3641 3997 3641 3322 
Q 3641 2881 3436 2590 
Q 3231 2300 2841 2188 
z
M 1259 4147 
L 1259 2491 
L 2053 2491 
Q 2509 2491 2742 2702 
Q 2975 2913 2975 3322 
Q 2975 3731 2742 3939 
Q 2509 4147 2053 4147 
L 1259 4147 
z
" transform="scale(0.015625)"/>
       <path id="DejaVuSans-29" d="M 513 4856 
L 1013 4856 
Q 1481 4119 1714 3412 
Q 1947 2706 1947 2009 
Q 1947 1309 1714 600 
Q 1481 -109 1013 -844 
L 513 -844 
Q 928 -128 1133 580 
Q 1338 1288 1338 2009 
Q 1338 2731 1133 3434 
Q 928 4138 513 4856 
z
" transform="scale(0.015625)"/>
      </defs>
      <use xlink:href="#DejaVuSans-43"/>
      <use xlink:href="#DejaVuSans-6f" x="69.824219"/>
      <use xlink:href="#DejaVuSans-74" x="131.005859"/>
      <use xlink:href="#DejaVuSans-61" x="170.214844"/>
      <use xlink:href="#DejaVuSans-e7" x="231.494141"/>
      <use xlink:href="#DejaVuSans-e3" x="286.474609"/>
      <use xlink:href="#DejaVuSans-6f" x="347.753906"/>
      <use xlink:href="#DejaVuSans-20" x="408.935547"/>
      <use xlink:href="#DejaVuSans-64" x="440.722656"/>
      <use xlink:href="#DejaVuSans-6f" x="504.199219"/>
      <use xlink:href="#DejaVuSans-20" x="565.380859"/>
      <use xlink:href="#DejaVuSans-43" x="597.167969"/>
      <use xlink:href="#DejaVuSans-72" x="666.992188"/>
      <use xlink:href="#DejaVuSans-e9" x="705.855469"/>
      <use xlink:href="#DejaVuSans-64" x="767.378906"/>
      <use xlink:href="#DejaVuSans-69" x="830.855469"/>
      <use xlink:href="#DejaVuSans-74" x="858.638672"/>
      <use xlink:href="#DejaVuSans-6f" x="897.847656"/>
      <use xlink:href="#DejaVuSans-20" x="959.029297"/>
      <use xlink:href="#DejaVuSans-28" x="990.816406"/>
      <use xlink:href="#DejaVuSans-65" x="1029.830078"/>
      <use xlink:href="#DejaVuSans-6d" x="1091.353516"/>
      <use xlink:href="#DejaVuSans-20" x="1188.765625"/>
      <use xlink:href="#DejaVuSans-45" x="1220.552734"/>
      <use xlink:href="#DejaVuSans-55" x="1283.736328"/>
      <use xlink:href="#DejaVuSans-52" x="1356.929688"/>
      <use xlink:href="#DejaVuSans-29" x="1426.412109"/>
     </g>
    </g>
   </g>
   <g id="line2d_13">
    <path d="M 138.436364 468.845318 
L 142.712421 468.076021 
L 152.028117 471.74361 
L 156.762323 471.543909 
L 161.343812 469.453126 
L 166.078019 469.697389 
L 170.812225 469.103624 
L 175.393714 466.480942 
L 180.12792 468.010092 
L 184.70941 469.05181 
L 189.443616 468.209308 
L 194.177822 465.443861 
L 198.453879 461.848489 
L 203.188086 463.768832 
L 207.769575 464.227867 
L 212.503781 465.213656 
L 217.085271 463.944899 
L 221.819477 463.047345 
L 226.553683 462.660531 
L 231.135173 463.944705 
L 235.869379 462.513004 
L 240.450869 460.618501 
L 245.185075 459.809684 
L 249.919281 457.77916 
L 254.195338 456.756711 
L 258.929544 458.22151 
L 263.511034 457.578092 
L 268.24524 457.148618 
L 272.82673 457.055491 
L 277.560936 455.658512 
L 282.295142 454.923287 
L 286.876632 455.449484 
L 291.610838 454.120916 
L 296.192328 453.854759 
L 300.926534 455.033874 
L 305.66074 463.550611 
L 310.089513 466.620646 
L 314.823719 466.483408 
L 319.405209 463.72099 
L 324.139415 464.143233 
L 328.720905 465.356256 
L 333.455111 467.2082 
L 338.189317 467.197571 
L 342.770807 468.237881 
L 347.505013 464.293055 
L 352.086503 465.641455 
L 356.820709 465.015498 
L 361.554915 464.750053 
L 365.830972 464.028227 
L 370.565178 464.768727 
L 375.146668 464.906234 
L 379.880874 464.765574 
L 389.19657 463.113552 
L 393.930776 461.324574 
L 398.512266 459.315745 
L 403.246472 458.546659 
L 407.827962 457.424381 
L 412.562168 457.625073 
L 417.296374 439.676277 
L 421.572431 437.046332 
L 426.306637 427.487885 
L 430.888127 423.303798 
L 435.622333 419.476355 
L 440.203822 419.546574 
L 444.938029 413.031965 
L 449.672235 407.100223 
L 454.253724 404.338235 
L 458.98793 404.943556 
L 463.56942 403.379105 
L 468.303626 396.806644 
L 473.037832 383.018834 
L 477.31389 391.434808 
L 482.048096 389.802769 
L 486.629585 378.038587 
L 491.363791 379.921921 
L 495.945281 379.448287 
L 500.679487 371.361818 
L 505.413693 378.394289 
L 509.995183 378.788254 
L 514.729389 379.894605 
L 519.310879 383.738677 
L 524.045085 380.138974 
L 528.779291 385.917126 
L 533.208065 384.488749 
L 537.942271 400.799266 
L 542.52376 394.470726 
L 547.257967 395.289073 
L 551.839456 384.861254 
L 556.573662 376.901864 
L 561.307868 377.096847 
L 565.889358 375.403641 
L 570.623564 382.936222 
L 575.205054 377.812465 
L 579.93926 367.712334 
L 584.673466 317.747075 
L 588.949523 300.285097 
L 593.683729 297.019855 
L 598.265219 294.84779 
L 602.999425 276.293165 
L 607.580915 265.133792 
L 612.315121 267.826077 
L 617.049327 260.582159 
L 621.630817 247.571046 
L 626.365023 250.146275 
L 630.946513 231.543906 
L 635.680719 208.922844 
L 640.414925 147.051562 
L 644.690982 136.349081 
L 649.425188 163.346816 
L 654.006678 153.232239 
L 658.740884 148.481439 
L 663.322374 147.779376 
L 668.05658 162.732212 
L 672.790786 136.528817 
L 677.372276 188.133231 
L 682.106482 180.128866 
L 686.687972 167.304419 
L 691.422178 146.529667 
L 696.156384 146.100897 
L 700.432441 110.01639 
L 705.166647 126.806697 
L 709.748137 117.65751 
L 714.482343 134.482419 
L 719.063833 130.693342 
L 723.798039 119.16314 
L 728.532245 115.944462 
L 733.113734 130.251962 
L 737.847941 126.639437 
L 742.42943 132.730481 
L 747.163636 132.893452 
L 747.163636 132.893452 
" clip-path="url(#p1dddf0533f)" style="fill: none; stroke: #1f77b4; stroke-width: 1.4; stroke-linecap: square"/>
   </g>
   <g id="patch_3">
    <path d="M 108 512.64 
L 108 69.12 
" style="fill: none; stroke: #000000; stroke-width: 0.8; stroke-linejoin: miter; stroke-linecap: square"/>
   </g>
   <g id="patch_4">
    <path d="M 777.6 512.64 
L 777.6 69.12 
" style="fill: none; stroke: #000000; stroke-width: 0.8; stroke-linejoin: miter; stroke-linecap: square"/>
   </g>
   <g id="patch_5">
    <path d="M 108 512.64 
L 777.6 512.64 
" style="fill: none; stroke: #000000; stroke-width: 0.8; stroke-linejoin: miter; stroke-linecap: square"/>
   </g>
   <g id="patch_6">
    <path d="M 108 69.12 
L 777.6 69.12 
" style="fill: none; stroke: #000000; stroke-width: 0.8; stroke-linejoin: miter; stroke-linecap: square"/>
   </g>
   <g id="text_14">
    <!-- Serie temporal da média mensal da cotação do Crédito de Carbono -->
    <g transform="translate(206.350937 63.12) scale(0.14 -0.14)">
     <defs>
      <path id="DejaVuSans-53" d="M 3425 4513 
L 3425 3897 
Q 3066 4069 2747 4153 
Q 2428 4238 2131 4238 
Q 1616 4238 1336 4038 
Q 1056 3838 1056 3469 
Q 1056 3159 1242 3001 
Q 1428 2844 1947 2747 
L 2328 2669 
Q 3034 2534 3370 2195 
Q 3706 1856 3706 1288 
Q 3706 609 3251 259 
Q 2797 -91 1919 -91 
Q 1588 -91 1214 -16 
Q 841 59 441 206 
L 441 856 
Q 825 641 1194 531 
Q 1563 422 1919 422 
Q 2459 422 2753 634 
Q 3047 847 3047 1241 
Q 3047 1584 2836 1778 
Q 2625 1972 2144 2069 
L 1759 2144 
Q 1053 2284 737 2584 
Q 422 2884 422 3419 
Q 422 4038 858 4394 
Q 1294 4750 2059 4750 
Q 2388 4750 2728 4690 
Q 3069 4631 3425 4513 
z
" transform="scale(0.015625)"/>
      <path id="DejaVuSans-70" d="M 1159 525 
L 1159 -1331 
L 581 -1331 
L 581 3500 
L 1159 3500 
L 1159 2969 
Q 1341 3281 1617 3432 
Q 1894 3584 2278 3584 
Q 2916 3584 3314 3078 
Q 3713 2572 3713 1747 
Q 3713 922 3314 415 
Q 2916 -91 2278 -91 
Q 1894 -91 1617 61 
Q 1341 213 1159 525 
z
M 3116 1747 
Q 3116 2381 2855 2742 
Q 2594 3103 2138 3103 
Q 1681 3103 1420 2742 
Q 1159 2381 1159 1747 
Q 1159 1113 1420 752 
Q 1681 391 2138 391 
Q 2594 391 2855 752 
Q 3116 1113 3116 1747 
z
" transform="scale(0.015625)"/>
      <path id="DejaVuSans-6c" d="M 603 4863 
L 1178 4863 
L 1178 0 
L 603 0 
L 603 4863 
z
" transform="scale(0.015625)"/>
      <path id="DejaVuSans-6e" d="M 3513 2113 
L 3513 0 
L 2938 0 
L 2938 2094 
Q 2938 2591 2744 2837 
Q 2550 3084 2163 3084 
Q 1697 3084 1428 2787 
Q 1159 2491 1159 1978 
L 1159 0 
L 581 0 
L 581 3500 
L 1159 3500 
L 1159 2956 
Q 1366 3272 1645 3428 
Q 1925 3584 2291 3584 
Q 2894 3584 3203 3211 
Q 3513 2838 3513 2113 
z
" transform="scale(0.015625)"/>
      <path id="DejaVuSans-73" d="M 2834 3397 
L 2834 2853 
Q 2591 2978 2328 3040 
Q 2066 3103 1784 3103 
Q 1356 3103 1142 2972 
Q 928 2841 928 2578 
Q 928 2378 1081 2264 
Q 1234 2150 1697 2047 
L 1894 2003 
Q 2506 1872 2764 1633 
Q 3022 1394 3022 966 
Q 3022 478 2636 193 
Q 2250 -91 1575 -91 
Q 1294 -91 989 -36 
Q 684 19 347 128 
L 347 722 
Q 666 556 975 473 
Q 1284 391 1588 391 
Q 1994 391 2212 530 
Q 2431 669 2431 922 
Q 2431 1156 2273 1281 
Q 2116 1406 1581 1522 
L 1381 1569 
Q 847 1681 609 1914 
Q 372 2147 372 2553 
Q 372 3047 722 3315 
Q 1072 3584 1716 3584 
Q 2034 3584 2315 3537 
Q 2597 3491 2834 3397 
z
" transform="scale(0.015625)"/>
      <path id="DejaVuSans-63" d="M 3122 3366 
L 3122 2828 
Q 2878 2963 2633 3030 
Q 2388 3097 2138 3097 
Q 1578 3097 1268 2742 
Q 959 2388 959 1747 
Q 959 1106 1268 751 
Q 1578 397 2138 397 
Q 2388 397 2633 464 
Q 2878 531 3122 666 
L 3122 134 
Q 2881 22 2623 -34 
Q 2366 -91 2075 -91 
Q 1284 -91 818 406 
Q 353 903 353 1747 
Q 353 2603 823 3093 
Q 1294 3584 2113 3584 
Q 2378 3584 2631 3529 
Q 2884 3475 3122 3366 
z
" transform="scale(0.015625)"/>
      <path id="DejaVuSans-62" d="M 3116 1747 
Q 3116 2381 2855 2742 
Q 2594 3103 2138 3103 
Q 1681 3103 1420 2742 
Q 1159 2381 1159 1747 
Q 1159 1113 1420 752 
Q 1681 391 2138 391 
Q 2594 391 2855 752 
Q 3116 1113 3116 1747 
z
M 1159 2969 
Q 1341 3281 1617 3432 
Q 1894 3584 2278 3584 
Q 2916 3584 3314 3078 
Q 3713 2572 3713 1747 
Q 3713 922 3314 415 
Q 2916 -91 2278 -91 
Q 1894 -91 1617 61 
Q 1341 213 1159 525 
L 1159 0 
L 581 0 
L 581 4863 
L 1159 4863 
L 1159 2969 
z
" transform="scale(0.015625)"/>
     </defs>
     <use xlink:href="#DejaVuSans-53"/>
     <use xlink:href="#DejaVuSans-65" x="63.476562"/>
     <use xlink:href="#DejaVuSans-72" x="125"/>
     <use xlink:href="#DejaVuSans-69" x="166.113281"/>
     <use xlink:href="#DejaVuSans-65" x="193.896484"/>
     <use xlink:href="#DejaVuSans-20" x="255.419922"/>
     <use xlink:href="#DejaVuSans-74" x="287.207031"/>
     <use xlink:href="#DejaVuSans-65" x="326.416016"/>
     <use xlink:href="#DejaVuSans-6d" x="387.939453"/>
     <use xlink:href="#DejaVuSans-70" x="485.351562"/>
     <use xlink:href="#DejaVuSans-6f" x="548.828125"/>
     <use xlink:href="#DejaVuSans-72" x="610.009766"/>
     <use xlink:href="#DejaVuSans-61" x="651.123047"/>
     <use xlink:href="#DejaVuSans-6c" x="712.402344"/>
     <use xlink:href="#DejaVuSans-20" x="740.185547"/>
     <use xlink:href="#DejaVuSans-64" x="771.972656"/>
     <use xlink:href="#DejaVuSans-61" x="835.449219"/>
     <use xlink:href="#DejaVuSans-20" x="896.728516"/>
     <use xlink:href="#DejaVuSans-6d" x="928.515625"/>
     <use xlink:href="#DejaVuSans-e9" x="1025.927734"/>
     <use xlink:href="#DejaVuSans-64" x="1087.451172"/>
     <use xlink:href="#DejaVuSans-69" x="1150.927734"/>
     <use xlink:href="#DejaVuSans-61" x="1178.710938"/>
     <use xlink:href="#DejaVuSans-20" x="1239.990234"/>
     <use xlink:href="#DejaVuSans-6d" x="1271.777344"/>
     <use xlink:href="#DejaVuSans-65" x="1369.189453"/>
     <use xlink:href="#DejaVuSans-6e" x="1430.712891"/>
     <use xlink:href="#DejaVuSans-73" x="1494.091797"/>
     <use xlink:href="#DejaVuSans-61" x="1546.191406"/>
     <use xlink:href="#DejaVuSans-6c" x="1607.470703"/>
     <use xlink:href="#DejaVuSans-20" x="1635.253906"/>
     <use xlink:href="#DejaVuSans-64" x="1667.041016"/>
     <use xlink:href="#DejaVuSans-61" x="1730.517578"/>
     <use xlink:href="#DejaVuSans-20" x="1791.796875"/>
     <use xlink:href="#DejaVuSans-63" x="1823.583984"/>
     <use xlink:href="#DejaVuSans-6f" x="1878.564453"/>
     <use xlink:href="#DejaVuSans-74" x="1939.746094"/>
     <use xlink:href="#DejaVuSans-61" x="1978.955078"/>
     <use xlink:href="#DejaVuSans-e7" x="2040.234375"/>
     <use xlink:href="#DejaVuSans-e3" x="2095.214844"/>
     <use xlink:href="#DejaVuSans-6f" x="2156.494141"/>
     <use xlink:href="#DejaVuSans-20" x="2217.675781"/>
     <use xlink:href="#DejaVuSans-64" x="2249.462891"/>
     <use xlink:href="#DejaVuSans-6f" x="2312.939453"/>
     <use xlink:href="#DejaVuSans-20" x="2374.121094"/>
     <use xlink:href="#DejaVuSans-43" x="2405.908203"/>
     <use xlink:href="#DejaVuSans-72" x="2475.732422"/>
     <use xlink:href="#DejaVuSans-e9" x="2514.595703"/>
     <use xlink:href="#DejaVuSans-64" x="2576.119141"/>
     <use xlink:href="#DejaVuSans-69" x="2639.595703"/>
     <use xlink:href="#DejaVuSans-74" x="2667.378906"/>
     <use xlink:href="#DejaVuSans-6f" x="2706.587891"/>
     <use xlink:href="#DejaVuSans-20" x="2767.769531"/>
     <use xlink:href="#DejaVuSans-64" x="2799.556641"/>
     <use xlink:href="#DejaVuSans-65" x="2863.033203"/>
     <use xlink:href="#DejaVuSans-20" x="2924.556641"/>
     <use xlink:href="#DejaVuSans-43" x="2956.34375"/>
     <use xlink:href="#DejaVuSans-61" x="3026.167969"/>
     <use xlink:href="#DejaVuSans-72" x="3087.447266"/>
     <use xlink:href="#DejaVuSans-62" x="3128.560547"/>
     <use xlink:href="#DejaVuSans-6f" x="3192.037109"/>
     <use xlink:href="#DejaVuSans-6e" x="3253.21875"/>
     <use xlink:href="#DejaVuSans-6f" x="3316.597656"/>
    </g>
   </g>
  </g>
 </g>
 <defs>
  <clipPath id="p1dddf0533f">
   <rect x="108" y="69.12" width="669.6" height="443.52"/>
  </clipPath>
 </defs>
</svg>
